<svg width="212" height="104" viewBox="0 0 212 104" fill="none" xmlns="http://www.w3.org/2000/svg">
<g opacity="0.8">
<path d="M66.3066 67.3308H79.4868V71.6302H73.2169V101.839H66.3066V67.3308Z" fill="#1F1F1F"/>
<path d="M87.301 88.8845L88.4853 71.6302H88.8819L90.0662 88.8845H87.301ZM79.6484 101.839H86.4142L87.0545 92.6748H90.3127L90.9559 101.839H97.7188L94.1149 67.3308H83.2523L79.6484 101.839Z" fill="#1F1F1F"/>
<path d="M107.614 89.7614V96.2671C107.614 97.144 108.294 97.3985 108.691 97.3985C109.343 97.3985 109.796 96.8611 109.796 96.2671V88.234C109.796 87.1591 109.598 85.9711 107.019 85.9711H104.214V82.1809H107.133C109.088 82.1809 109.796 81.7283 109.796 79.6069V72.7617C109.796 72.1677 109.343 71.6303 108.691 71.6303C108.294 71.6303 107.614 71.8566 107.614 72.7617V78.3906H100.701V73.4972C100.701 71.0929 100.984 67.3309 105.829 67.3309H111.552C116.397 67.3309 116.709 71.0929 116.709 73.4972V79.0128C116.709 82.7748 114.074 83.7931 112.006 83.7083V84.0477C116.652 83.9346 116.709 87.4986 116.709 88.7148V95.6731C116.709 98.1057 116.397 101.839 111.552 101.839H105.829C100.984 101.839 100.701 98.1057 100.701 95.6731V89.7614H107.614Z" fill="#1F1F1F"/>
<path d="M121.242 67.3306H137.25V101.839H130.337V71.6301H128.155V101.839H121.242V67.3306Z" fill="#1F1F1F"/>
<path d="M148.698 86.3103V71.6301H149.605C150.342 71.6301 150.88 72.2523 150.88 73.3555V84.5849C150.88 85.688 150.342 86.3103 149.605 86.3103H148.698ZM141.785 101.839H148.698V90.1006H152.665C157.481 90.1006 157.793 86.3669 157.793 83.9343V73.4969C157.793 71.0926 157.481 67.3306 152.665 67.3306H141.785V101.839Z" fill="#1F1F1F"/>
<path d="M171.419 96.2668C171.419 96.8609 170.966 97.3983 170.314 97.3983C169.917 97.3983 169.237 97.1437 169.237 96.2668V72.7615C169.237 71.8564 169.917 71.6301 170.314 71.6301C170.966 71.6301 171.419 72.1675 171.419 72.7615V96.2668ZM162.324 95.6729C162.324 98.1054 162.636 101.839 167.452 101.839H173.204C178.02 101.839 178.332 98.1054 178.332 95.6729V73.4969C178.332 71.0926 178.02 67.3306 173.204 67.3306H167.452C162.636 67.3306 162.324 71.0926 162.324 73.4969V95.6729Z" fill="#1F1F1F"/>
<path d="M200.828 67.3306H209.838V101.839H202.925V80.2006H202.67L199.1 101.839H193.575L190.033 80.2006H189.778V101.839H182.865V67.3306H191.847L196.351 91.5997L200.828 67.3306Z" fill="#1F1F1F"/>
<path d="M57.3477 20.1503C55.2313 10.901 49.9275 3.37698 49.1965 2.1607C48.0406 3.88612 43.8105 10.5332 41.6601 17.8875C39.3114 26.1186 38.9657 33.4163 39.776 40.5726C40.5807 47.7571 43.6207 55.1397 43.6207 55.1397C45.2357 58.9865 47.6553 63.1445 49.2305 65.1811C51.5396 62.1828 56.8463 53.2446 58.5009 41.5909C59.4217 35.0852 59.4613 29.3998 57.3477 20.1503ZM49.1965 62.8617C48.1567 60.91 46.5418 57.2046 46.3888 51.4343C46.3491 45.8903 48.5789 41.11 49.2305 40.12C49.8113 41.11 51.7323 45.268 51.9618 50.9534C52.1176 56.4974 50.2703 60.8817 49.1965 62.8617ZM56.7329 35.8489C56.6536 39.3846 56.2314 43.1183 55.6931 45.3529C55.8858 41.506 55.424 36.1035 54.54 31.8606C53.656 27.6461 51.1543 20.5746 49.1569 17.3218C47.3124 20.4332 45.0402 26.5429 43.8502 31.8323C42.6546 37.1217 42.6206 43.5426 42.6206 45.466C42.3033 43.8537 41.51 38.0552 41.7338 32.2566C41.9208 27.4763 43.0427 22.5264 43.6576 20.2635C46.0035 12.7113 48.6582 7.8744 49.1569 7.11067C49.6555 7.8744 52.9987 13.8427 54.7327 20.0938C56.4581 26.3449 56.8066 32.3415 56.7329 35.8489Z" fill="#1F1F1F"/>
<path d="M52.7863 67.3308H36.6964V78.1076C36.7106 78.1076 36.7219 78.0794 36.7361 78.0794C40.5269 74.2891 46.675 74.2891 50.4687 78.0794C54.2596 81.8414 54.2596 87.9793 50.4687 91.7696C50.4518 91.7979 50.4347 91.7979 50.4177 91.8262C50.3979 91.8262 50.3781 91.8545 50.3611 91.8828C46.5787 95.6165 41.6376 97.4833 36.6964 97.4833C31.7326 97.4833 26.7687 95.6165 22.9836 91.8262C16.3084 85.179 15.518 74.8548 20.6065 67.3308C21.2921 66.3125 22.0826 65.3508 22.9836 64.4457C26.7687 60.6554 31.7326 58.7885 36.6964 58.7885V32.8789C17.6231 32.8789 2.16211 48.2946 2.16211 67.3308C2.16211 86.3671 17.6231 101.811 36.6964 101.811C46.641 101.811 55.5997 97.5964 61.9008 90.8927V67.3308H52.7863Z" fill="#1F1F1F"/>
</g>
</svg>
