<svg width="270" height="119" viewBox="0 0 270 119" fill="none" xmlns="http://www.w3.org/2000/svg">
<path fill-rule="evenodd" clip-rule="evenodd" d="M13 1C6.37258 1 1 6.37258 1 13V99C1 105.627 6.37259 111 13 111H26.5095L31.3163 118L36.1231 111H257C263.627 111 269 105.627 269 99V13C269 6.37258 263.627 1 257 1H13Z" fill="white"/>
<path d="M26.5095 111L26.9216 110.717C26.8284 110.581 26.6742 110.5 26.5095 110.5V111ZM31.3163 118L30.9041 118.283C30.9974 118.419 31.1515 118.5 31.3163 118.5C31.481 118.5 31.6352 118.419 31.7285 118.283L31.3163 118ZM36.1231 111V110.5C35.9583 110.5 35.8042 110.581 35.7109 110.717L36.1231 111ZM1.5 13C1.5 6.64873 6.64873 1.5 13 1.5V0.5C6.09644 0.5 0.5 6.09644 0.5 13H1.5ZM1.5 99V13H0.5V99H1.5ZM13 110.5C6.64873 110.5 1.5 105.351 1.5 99H0.5C0.5 105.904 6.09645 111.5 13 111.5V110.5ZM26.5095 110.5H13V111.5H26.5095V110.5ZM31.7285 117.717L26.9216 110.717L26.0973 111.283L30.9041 118.283L31.7285 117.717ZM35.7109 110.717L30.9041 117.717L31.7285 118.283L36.5353 111.283L35.7109 110.717ZM257 110.5H36.1231V111.5H257V110.5ZM268.5 99C268.5 105.351 263.351 110.5 257 110.5V111.5C263.904 111.5 269.5 105.904 269.5 99H268.5ZM268.5 13V99H269.5V13H268.5ZM257 1.5C263.351 1.5 268.5 6.64873 268.5 13H269.5C269.5 6.09644 263.904 0.5 257 0.5V1.5ZM13 1.5H257V0.5H13V1.5Z" fill="#E8E8E8"/>
<path d="M28.9766 22.5781V23.7656H23.8906V34H22.5625V22.5781H28.9766ZM34.7188 25.2812C35.7865 25.2812 36.638 25.6484 37.2734 26.3828C37.9089 27.1172 38.2266 28.2214 38.2266 29.6953C38.2266 30.6693 38.0807 31.487 37.7891 32.1484C37.4974 32.8099 37.0859 33.3099 36.5547 33.6484C36.0286 33.987 35.4062 34.1562 34.6875 34.1562C34.2344 34.1562 33.8359 34.0964 33.4922 33.9766C33.1484 33.8568 32.8542 33.6953 32.6094 33.4922C32.3646 33.2891 32.1615 33.0677 32 32.8281H31.9062C31.9219 33.0312 31.9401 33.276 31.9609 33.5625C31.987 33.849 32 34.099 32 34.3125V37.8281H30.6953V25.4375H31.7656L31.9375 26.7031H32C32.1667 26.4427 32.3698 26.2057 32.6094 25.9922C32.849 25.7734 33.1406 25.6016 33.4844 25.4766C33.8333 25.3464 34.2448 25.2812 34.7188 25.2812ZM34.4922 26.375C33.8984 26.375 33.4193 26.4896 33.0547 26.7188C32.6953 26.9479 32.4323 27.2917 32.2656 27.75C32.099 28.2031 32.0104 28.7734 32 29.4609V29.7109C32 30.4349 32.0781 31.0469 32.2344 31.5469C32.3958 32.0469 32.6589 32.4271 33.0234 32.6875C33.3932 32.9479 33.888 33.0781 34.5078 33.0781C35.0391 33.0781 35.4818 32.9349 35.8359 32.6484C36.1901 32.362 36.4531 31.9635 36.625 31.4531C36.8021 30.9375 36.8906 30.3464 36.8906 29.6797C36.8906 28.6693 36.6927 27.8672 36.2969 27.2734C35.9062 26.6745 35.3047 26.375 34.4922 26.375ZM39.1406 25.4375H40.5312L42.4219 30.4062C42.5312 30.6979 42.6328 30.9792 42.7266 31.25C42.8203 31.5156 42.9036 31.7708 42.9766 32.0156C43.0495 32.2604 43.1068 32.4974 43.1484 32.7266H43.2031C43.276 32.4661 43.3802 32.125 43.5156 31.7031C43.651 31.276 43.7969 30.8411 43.9531 30.3984L45.7422 25.4375H47.1406L43.4141 35.2578C43.2161 35.7839 42.9844 36.2422 42.7188 36.6328C42.4583 37.0234 42.1406 37.3229 41.7656 37.5312C41.3906 37.7448 40.9375 37.8516 40.4062 37.8516C40.1615 37.8516 39.9453 37.8359 39.7578 37.8047C39.5703 37.7786 39.4089 37.7474 39.2734 37.7109V36.6719C39.388 36.6979 39.526 36.7214 39.6875 36.7422C39.8542 36.763 40.026 36.7734 40.2031 36.7734C40.526 36.7734 40.8047 36.7109 41.0391 36.5859C41.2786 36.4661 41.4844 36.2891 41.6562 36.0547C41.8281 35.8203 41.9766 35.5417 42.1016 35.2188L42.5703 34.0156L39.1406 25.4375ZM50.7109 25.2812C51.3516 25.2812 51.9062 25.3698 52.375 25.5469C52.8438 25.7188 53.2057 25.9714 53.4609 26.3047C53.7161 26.638 53.8438 27.0443 53.8438 27.5234C53.8438 28.0391 53.7031 28.4505 53.4219 28.7578C53.1406 29.0651 52.7526 29.2865 52.2578 29.4219V29.4844C52.6068 29.5781 52.9219 29.7135 53.2031 29.8906C53.4896 30.0625 53.7161 30.2917 53.8828 30.5781C54.0547 30.8594 54.1406 31.2109 54.1406 31.6328C54.1406 32.112 54.0104 32.5443 53.75 32.9297C53.4896 33.3099 53.0938 33.6094 52.5625 33.8281C52.0312 34.0469 51.3594 34.1562 50.5469 34.1562C50.1458 34.1562 49.7656 34.1328 49.4062 34.0859C49.0469 34.0443 48.7214 33.9818 48.4297 33.8984C48.138 33.8151 47.8828 33.7161 47.6641 33.6016V32.4219C48.0286 32.599 48.4557 32.7552 48.9453 32.8906C49.4349 33.026 49.9635 33.0938 50.5312 33.0938C50.9688 33.0938 51.362 33.0443 51.7109 32.9453C52.0599 32.8411 52.3359 32.6771 52.5391 32.4531C52.7474 32.224 52.8516 31.9245 52.8516 31.5547C52.8516 31.2161 52.7604 30.9375 52.5781 30.7188C52.3958 30.4948 52.1224 30.3307 51.7578 30.2266C51.3984 30.1172 50.9427 30.0625 50.3906 30.0625H49.2422V29H50.1875C50.9219 29 51.5078 28.8958 51.9453 28.6875C52.3828 28.4792 52.6016 28.1276 52.6016 27.6328C52.6016 27.2057 52.4323 26.888 52.0938 26.6797C51.7552 26.4661 51.2708 26.3594 50.6406 26.3594C50.1719 26.3594 49.7578 26.4089 49.3984 26.5078C49.0391 26.6016 48.651 26.737 48.2344 26.9141L47.7734 25.875C48.2214 25.6771 48.6901 25.5286 49.1797 25.4297C49.6693 25.3307 50.1797 25.2812 50.7109 25.2812ZM63.625 29.7031C63.625 30.4062 63.5339 31.0339 63.3516 31.5859C63.1693 32.138 62.9062 32.6042 62.5625 32.9844C62.2188 33.3646 61.8021 33.6562 61.3125 33.8594C60.8281 34.0573 60.2786 34.1562 59.6641 34.1562C59.0911 34.1562 58.5651 34.0573 58.0859 33.8594C57.612 33.6562 57.2005 33.3646 56.8516 32.9844C56.5078 32.6042 56.2396 32.138 56.0469 31.5859C55.8594 31.0339 55.7656 30.4062 55.7656 29.7031C55.7656 28.7656 55.9245 27.9688 56.2422 27.3125C56.5599 26.651 57.013 26.1484 57.6016 25.8047C58.1953 25.4557 58.901 25.2812 59.7188 25.2812C60.5 25.2812 61.1823 25.4557 61.7656 25.8047C62.3542 26.1536 62.8099 26.6589 63.1328 27.3203C63.4609 27.9766 63.625 28.7708 63.625 29.7031ZM57.1094 29.7031C57.1094 30.3906 57.2005 30.987 57.3828 31.4922C57.5651 31.9974 57.8464 32.388 58.2266 32.6641C58.6068 32.9401 59.0964 33.0781 59.6953 33.0781C60.2891 33.0781 60.776 32.9401 61.1562 32.6641C61.5417 32.388 61.8255 31.9974 62.0078 31.4922C62.1901 30.987 62.2812 30.3906 62.2812 29.7031C62.2812 29.0208 62.1901 28.4323 62.0078 27.9375C61.8255 27.4375 61.5443 27.0521 61.1641 26.7812C60.7839 26.5104 60.2917 26.375 59.6875 26.375C58.7969 26.375 58.1432 26.6693 57.7266 27.2578C57.3151 27.8464 57.1094 28.6615 57.1094 29.7031ZM72.6719 27.5859C72.6719 28.1224 72.5156 28.5417 72.2031 28.8438C71.8906 29.1406 71.487 29.3411 70.9922 29.4453V29.5078C71.5286 29.5807 71.9896 29.7734 72.375 30.0859C72.7656 30.3932 72.9609 30.8646 72.9609 31.5C72.9609 31.9896 72.8438 32.4219 72.6094 32.7969C72.375 33.1719 72.0078 33.4661 71.5078 33.6797C71.0078 33.8932 70.3568 34 69.5547 34H65.8672V25.4375H69.5234C70.138 25.4375 70.6797 25.5078 71.1484 25.6484C71.6224 25.7839 71.9948 26.0078 72.2656 26.3203C72.5365 26.6328 72.6719 27.0547 72.6719 27.5859ZM71.6094 31.5C71.6094 30.9948 71.4167 30.6302 71.0312 30.4062C70.651 30.1823 70.0964 30.0703 69.3672 30.0703H67.1719V32.9453H69.3984C70.1172 32.9453 70.6641 32.8359 71.0391 32.6172C71.4193 32.3932 71.6094 32.0208 71.6094 31.5ZM71.3516 27.7344C71.3516 27.3281 71.2031 27.026 70.9062 26.8281C70.6094 26.625 70.1224 26.5234 69.4453 26.5234H67.1719V28.9844H69.2188C69.9219 28.9844 70.4531 28.8828 70.8125 28.6797C71.1719 28.4766 71.3516 28.1615 71.3516 27.7344ZM82.4375 29.7031C82.4375 30.4062 82.3464 31.0339 82.1641 31.5859C81.9818 32.138 81.7188 32.6042 81.375 32.9844C81.0312 33.3646 80.6146 33.6562 80.125 33.8594C79.6406 34.0573 79.0911 34.1562 78.4766 34.1562C77.9036 34.1562 77.3776 34.0573 76.8984 33.8594C76.4245 33.6562 76.013 33.3646 75.6641 32.9844C75.3203 32.6042 75.0521 32.138 74.8594 31.5859C74.6719 31.0339 74.5781 30.4062 74.5781 29.7031C74.5781 28.7656 74.737 27.9688 75.0547 27.3125C75.3724 26.651 75.8255 26.1484 76.4141 25.8047C77.0078 25.4557 77.7135 25.2812 78.5312 25.2812C79.3125 25.2812 79.9948 25.4557 80.5781 25.8047C81.1667 26.1536 81.6224 26.6589 81.9453 27.3203C82.2734 27.9766 82.4375 28.7708 82.4375 29.7031ZM75.9219 29.7031C75.9219 30.3906 76.013 30.987 76.1953 31.4922C76.3776 31.9974 76.6589 32.388 77.0391 32.6641C77.4193 32.9401 77.9089 33.0781 78.5078 33.0781C79.1016 33.0781 79.5885 32.9401 79.9688 32.6641C80.3542 32.388 80.638 31.9974 80.8203 31.4922C81.0026 30.987 81.0938 30.3906 81.0938 29.7031C81.0938 29.0208 81.0026 28.4323 80.8203 27.9375C80.638 27.4375 80.3568 27.0521 79.9766 26.7812C79.5964 26.5104 79.1042 26.375 78.5 26.375C77.6094 26.375 76.9557 26.6693 76.5391 27.2578C76.1276 27.8464 75.9219 28.6615 75.9219 29.7031ZM85.9141 25.4375V30.8203C85.9141 30.9245 85.9115 31.0599 85.9062 31.2266C85.901 31.388 85.8932 31.5625 85.8828 31.75C85.8724 31.9323 85.862 32.1094 85.8516 32.2812C85.8464 32.4479 85.8385 32.5859 85.8281 32.6953L90.5 25.4375H92.0938V34H90.8828V28.75C90.8828 28.5833 90.8854 28.3698 90.8906 28.1094C90.8958 27.849 90.9036 27.5938 90.9141 27.3438C90.9245 27.0885 90.9323 26.8906 90.9375 26.75L86.2812 34H84.6797V25.4375H85.9141ZM91.4531 21.9141C91.4062 22.4401 91.2734 22.8802 91.0547 23.2344C90.8411 23.5885 90.526 23.8568 90.1094 24.0391C89.6927 24.2161 89.1589 24.3047 88.5078 24.3047C87.8359 24.3047 87.2943 24.2188 86.8828 24.0469C86.4766 23.8698 86.1745 23.6042 85.9766 23.25C85.7839 22.8958 85.6693 22.4505 85.6328 21.9141H86.8516C86.9089 22.487 87.0625 22.8776 87.3125 23.0859C87.5625 23.2943 87.9688 23.3984 88.5312 23.3984C89.0312 23.3984 89.4245 23.2891 89.7109 23.0703C89.9974 22.8516 90.1693 22.4661 90.2266 21.9141H91.4531ZM106.18 25.4375V34H104.875V26.5547H100.312V34H99.0078V25.4375H106.18ZM112.953 25.2812C114.021 25.2812 114.872 25.6484 115.508 26.3828C116.143 27.1172 116.461 28.2214 116.461 29.6953C116.461 30.6693 116.315 31.487 116.023 32.1484C115.732 32.8099 115.32 33.3099 114.789 33.6484C114.263 33.987 113.641 34.1562 112.922 34.1562C112.469 34.1562 112.07 34.0964 111.727 33.9766C111.383 33.8568 111.089 33.6953 110.844 33.4922C110.599 33.2891 110.396 33.0677 110.234 32.8281H110.141C110.156 33.0312 110.174 33.276 110.195 33.5625C110.221 33.849 110.234 34.099 110.234 34.3125V37.8281H108.93V25.4375H110L110.172 26.7031H110.234C110.401 26.4427 110.604 26.2057 110.844 25.9922C111.083 25.7734 111.375 25.6016 111.719 25.4766C112.068 25.3464 112.479 25.2812 112.953 25.2812ZM112.727 26.375C112.133 26.375 111.654 26.4896 111.289 26.7188C110.93 26.9479 110.667 27.2917 110.5 27.75C110.333 28.2031 110.245 28.7734 110.234 29.4609V29.7109C110.234 30.4349 110.312 31.0469 110.469 31.5469C110.63 32.0469 110.893 32.4271 111.258 32.6875C111.628 32.9479 112.122 33.0781 112.742 33.0781C113.273 33.0781 113.716 32.9349 114.07 32.6484C114.424 32.362 114.688 31.9635 114.859 31.4531C115.036 30.9375 115.125 30.3464 115.125 29.6797C115.125 28.6693 114.927 27.8672 114.531 27.2734C114.141 26.6745 113.539 26.375 112.727 26.375ZM126.109 29.7031C126.109 30.4062 126.018 31.0339 125.836 31.5859C125.654 32.138 125.391 32.6042 125.047 32.9844C124.703 33.3646 124.286 33.6562 123.797 33.8594C123.312 34.0573 122.763 34.1562 122.148 34.1562C121.576 34.1562 121.049 34.0573 120.57 33.8594C120.096 33.6562 119.685 33.3646 119.336 32.9844C118.992 32.6042 118.724 32.138 118.531 31.5859C118.344 31.0339 118.25 30.4062 118.25 29.7031C118.25 28.7656 118.409 27.9688 118.727 27.3125C119.044 26.651 119.497 26.1484 120.086 25.8047C120.68 25.4557 121.385 25.2812 122.203 25.2812C122.984 25.2812 123.667 25.4557 124.25 25.8047C124.839 26.1536 125.294 26.6589 125.617 27.3203C125.945 27.9766 126.109 28.7708 126.109 29.7031ZM119.594 29.7031C119.594 30.3906 119.685 30.987 119.867 31.4922C120.049 31.9974 120.331 32.388 120.711 32.6641C121.091 32.9401 121.581 33.0781 122.18 33.0781C122.773 33.0781 123.26 32.9401 123.641 32.6641C124.026 32.388 124.31 31.9974 124.492 31.4922C124.674 30.987 124.766 30.3906 124.766 29.7031C124.766 29.0208 124.674 28.4323 124.492 27.9375C124.31 27.4375 124.029 27.0521 123.648 26.7812C123.268 26.5104 122.776 26.375 122.172 26.375C121.281 26.375 120.628 26.6693 120.211 27.2578C119.799 27.8464 119.594 28.6615 119.594 29.7031ZM131.648 25.2812C132.378 25.2812 133.003 25.4427 133.523 25.7656C134.044 26.0885 134.443 26.5417 134.719 27.125C134.995 27.7031 135.133 28.3802 135.133 29.1562V29.9609H129.219C129.234 30.9661 129.484 31.7318 129.969 32.2578C130.453 32.7839 131.135 33.0469 132.016 33.0469C132.557 33.0469 133.036 32.9974 133.453 32.8984C133.87 32.7995 134.302 32.6536 134.75 32.4609V33.6016C134.318 33.7943 133.888 33.9349 133.461 34.0234C133.039 34.112 132.539 34.1562 131.961 34.1562C131.138 34.1562 130.419 33.9896 129.805 33.6562C129.195 33.3177 128.721 32.8229 128.383 32.1719C128.044 31.5208 127.875 30.724 127.875 29.7812C127.875 28.8594 128.029 28.0625 128.336 27.3906C128.648 26.7135 129.086 26.1927 129.648 25.8281C130.216 25.4635 130.883 25.2812 131.648 25.2812ZM131.633 26.3438C130.94 26.3438 130.388 26.5703 129.977 27.0234C129.565 27.4766 129.32 28.1094 129.242 28.9219H133.773C133.768 28.4115 133.688 27.9635 133.531 27.5781C133.38 27.1875 133.148 26.8854 132.836 26.6719C132.523 26.4531 132.122 26.3438 131.633 26.3438ZM139.539 25.2812C140.18 25.2812 140.734 25.3698 141.203 25.5469C141.672 25.7188 142.034 25.9714 142.289 26.3047C142.544 26.638 142.672 27.0443 142.672 27.5234C142.672 28.0391 142.531 28.4505 142.25 28.7578C141.969 29.0651 141.581 29.2865 141.086 29.4219V29.4844C141.435 29.5781 141.75 29.7135 142.031 29.8906C142.318 30.0625 142.544 30.2917 142.711 30.5781C142.883 30.8594 142.969 31.2109 142.969 31.6328C142.969 32.112 142.839 32.5443 142.578 32.9297C142.318 33.3099 141.922 33.6094 141.391 33.8281C140.859 34.0469 140.188 34.1562 139.375 34.1562C138.974 34.1562 138.594 34.1328 138.234 34.0859C137.875 34.0443 137.549 33.9818 137.258 33.8984C136.966 33.8151 136.711 33.7161 136.492 33.6016V32.4219C136.857 32.599 137.284 32.7552 137.773 32.8906C138.263 33.026 138.792 33.0938 139.359 33.0938C139.797 33.0938 140.19 33.0443 140.539 32.9453C140.888 32.8411 141.164 32.6771 141.367 32.4531C141.576 32.224 141.68 31.9245 141.68 31.5547C141.68 31.2161 141.589 30.9375 141.406 30.7188C141.224 30.4948 140.951 30.3307 140.586 30.2266C140.227 30.1172 139.771 30.0625 139.219 30.0625H138.07V29H139.016C139.75 29 140.336 28.8958 140.773 28.6875C141.211 28.4792 141.43 28.1276 141.43 27.6328C141.43 27.2057 141.26 26.888 140.922 26.6797C140.583 26.4661 140.099 26.3594 139.469 26.3594C139 26.3594 138.586 26.4089 138.227 26.5078C137.867 26.6016 137.479 26.737 137.062 26.9141L136.602 25.875C137.049 25.6771 137.518 25.5286 138.008 25.4297C138.497 25.3307 139.008 25.2812 139.539 25.2812ZM151.344 25.4375V32.8984H152.57V36.9609H151.312V34H145.25V36.9609H144.008V32.8984H144.68C145.169 32.2214 145.576 31.4792 145.898 30.6719C146.221 29.8646 146.466 29.0182 146.633 28.1328C146.799 27.2422 146.888 26.3438 146.898 25.4375H151.344ZM150.086 26.4688H148.055C148.008 27.2292 147.896 28.0026 147.719 28.7891C147.547 29.5755 147.318 30.3255 147.031 31.0391C146.745 31.7474 146.411 32.3672 146.031 32.8984H150.086V26.4688ZM155.758 32.1406L155.859 32.3203C155.766 32.7005 155.646 33.1068 155.5 33.5391C155.359 33.9714 155.203 34.4036 155.031 34.8359C154.865 35.2734 154.695 35.6823 154.523 36.0625H153.555C153.664 35.6458 153.771 35.2057 153.875 34.7422C153.979 34.2839 154.073 33.8307 154.156 33.3828C154.245 32.9297 154.315 32.5156 154.367 32.1406H155.758ZM166.82 34H165.555V25.9062C165.555 25.599 165.555 25.3359 165.555 25.1172C165.56 24.8932 165.565 24.6901 165.57 24.5078C165.581 24.3203 165.594 24.1302 165.609 23.9375C165.448 24.1042 165.297 24.2474 165.156 24.3672C165.016 24.4818 164.841 24.625 164.633 24.7969L163.328 25.8438L162.648 24.9609L165.742 22.5781H166.82V34ZM178.211 25.2422C178.211 25.7526 178.112 26.1953 177.914 26.5703C177.716 26.9453 177.44 27.2526 177.086 27.4922C176.732 27.7266 176.315 27.8906 175.836 27.9844V28.0469C176.742 28.1615 177.422 28.4531 177.875 28.9219C178.333 29.3906 178.562 30.0052 178.562 30.7656C178.562 31.4271 178.406 32.013 178.094 32.5234C177.786 33.0339 177.312 33.4349 176.672 33.7266C176.036 34.013 175.221 34.1562 174.227 34.1562C173.622 34.1562 173.062 34.1068 172.547 34.0078C172.036 33.9141 171.547 33.7552 171.078 33.5312V32.3125C171.552 32.5469 172.068 32.7318 172.625 32.8672C173.182 32.9974 173.721 33.0625 174.242 33.0625C175.284 33.0625 176.036 32.8568 176.5 32.4453C176.964 32.0286 177.195 31.4609 177.195 30.7422C177.195 30.2474 177.065 29.849 176.805 29.5469C176.549 29.2396 176.18 29.0156 175.695 28.875C175.216 28.7292 174.638 28.6562 173.961 28.6562H172.82V27.5469H173.969C174.589 27.5469 175.115 27.4557 175.547 27.2734C175.979 27.0911 176.307 26.8359 176.531 26.5078C176.76 26.1745 176.875 25.7812 176.875 25.3281C176.875 24.75 176.682 24.3047 176.297 23.9922C175.911 23.6745 175.388 23.5156 174.727 23.5156C174.32 23.5156 173.951 23.5573 173.617 23.6406C173.284 23.724 172.971 23.8385 172.68 23.9844C172.388 24.1302 172.096 24.2995 171.805 24.4922L171.148 23.6016C171.565 23.2786 172.073 23 172.672 22.7656C173.271 22.5312 173.951 22.4141 174.711 22.4141C175.878 22.4141 176.753 22.6797 177.336 23.2109C177.919 23.7422 178.211 24.4193 178.211 25.2422ZM186.102 34L182.266 23.8906H182.203C182.224 24.1042 182.242 24.3646 182.258 24.6719C182.273 24.9792 182.286 25.3151 182.297 25.6797C182.307 26.0391 182.312 26.4062 182.312 26.7812V34H181.078V22.5781H183.047L186.664 32.0781H186.719L190.391 22.5781H192.344V34H191.031V26.6875C191.031 26.349 191.036 26.0104 191.047 25.6719C191.057 25.3281 191.07 25.0052 191.086 24.7031C191.102 24.3958 191.117 24.1302 191.133 23.9062H191.07L187.188 34H186.102Z" fill="#1F1F1F"/>
<path d="M29.9993 74.5294C26.7882 74.5294 24.1758 77.1711 24.1758 80.4181C24.1758 84.4992 30.005 91.4706 30.005 91.4706C30.005 91.4706 35.8228 84.2985 35.8228 80.4181C35.8228 77.1711 33.2105 74.5294 29.9993 74.5294ZM31.7564 82.1423C31.2719 82.6321 30.6357 82.8771 29.9993 82.8771C29.3631 82.8771 28.7266 82.6321 28.2423 82.1423C27.2734 81.1627 27.2734 79.5687 28.2423 78.5889C28.7115 78.1143 29.3356 77.8529 29.9993 77.8529C30.6631 77.8529 31.287 78.1144 31.7564 78.5889C32.7253 79.5687 32.7253 81.1627 31.7564 82.1423Z" fill="#F95707"/>
<path d="M51.5312 89H50.123L45.5293 83.9277V89H44.3672V79.0059H45.5293V83.8457L50.0068 79.0059H51.3398L46.917 83.8594L51.5312 89ZM55.5439 81.3848C56.4372 81.3848 57.1003 81.5853 57.5332 81.9863C57.9661 82.3874 58.1826 83.0277 58.1826 83.9072V89H57.3555L57.1367 87.8926H57.082C56.8724 88.166 56.6536 88.3962 56.4258 88.583C56.1979 88.7653 55.9336 88.9043 55.6328 89C55.3366 89.0911 54.972 89.1367 54.5391 89.1367C54.0833 89.1367 53.6777 89.057 53.3223 88.8975C52.9714 88.738 52.6934 88.4964 52.4883 88.1729C52.2878 87.8493 52.1875 87.4391 52.1875 86.9424C52.1875 86.195 52.4837 85.6208 53.0762 85.2197C53.6686 84.8187 54.571 84.5999 55.7832 84.5635L57.0752 84.5088V84.0508C57.0752 83.4036 56.9362 82.9502 56.6582 82.6904C56.3802 82.4307 55.9883 82.3008 55.4824 82.3008C55.0905 82.3008 54.7168 82.3577 54.3613 82.4717C54.0059 82.5856 53.6686 82.7201 53.3496 82.875L53.001 82.0137C53.3382 81.8405 53.7256 81.6924 54.1631 81.5693C54.6006 81.4463 55.0609 81.3848 55.5439 81.3848ZM57.0615 85.3086L55.9199 85.3564C54.9857 85.3929 54.3271 85.5456 53.9443 85.8145C53.5615 86.0833 53.3701 86.4639 53.3701 86.9561C53.3701 87.3844 53.5 87.7012 53.7598 87.9062C54.0195 88.1113 54.3636 88.2139 54.792 88.2139C55.4574 88.2139 56.002 88.0293 56.4258 87.6602C56.8496 87.291 57.0615 86.7373 57.0615 85.999V85.3086ZM64.8887 81.5078H66.1396L62.9062 85.124L66.3994 89H65.0664L61.6621 85.1992V89H60.5205V81.5078H61.6621V85.1445L64.8887 81.5078ZM76.8789 81.5078V88.0361H77.9521V91.5908H76.8516V89H71.5469V91.5908H70.46V88.0361H71.0479C71.4762 87.4437 71.8317 86.7943 72.1143 86.0879C72.3968 85.3815 72.611 84.641 72.7568 83.8662C72.9027 83.0869 72.9801 82.3008 72.9893 81.5078H76.8789ZM75.7783 82.4102H74.001C73.96 83.0755 73.862 83.7523 73.707 84.4404C73.5566 85.1286 73.3561 85.7848 73.1055 86.4092C72.8548 87.029 72.5632 87.5713 72.2305 88.0361H75.7783V82.4102ZM85.9023 85.2402C85.9023 85.8555 85.8226 86.4046 85.6631 86.8877C85.5036 87.3708 85.2734 87.7786 84.9727 88.1113C84.6719 88.444 84.3073 88.6992 83.8789 88.877C83.4551 89.0501 82.9743 89.1367 82.4365 89.1367C81.9352 89.1367 81.4749 89.0501 81.0557 88.877C80.641 88.6992 80.2809 88.444 79.9756 88.1113C79.6748 87.7786 79.4401 87.3708 79.2715 86.8877C79.1074 86.4046 79.0254 85.8555 79.0254 85.2402C79.0254 84.4199 79.1644 83.7227 79.4424 83.1484C79.7204 82.5697 80.1169 82.1299 80.6318 81.8291C81.1514 81.5238 81.7689 81.3711 82.4844 81.3711C83.168 81.3711 83.765 81.5238 84.2754 81.8291C84.7904 82.1344 85.1891 82.5765 85.4717 83.1553C85.7588 83.7295 85.9023 84.4245 85.9023 85.2402ZM80.2012 85.2402C80.2012 85.8418 80.2809 86.3636 80.4404 86.8057C80.5999 87.2477 80.846 87.5895 81.1787 87.8311C81.5114 88.0726 81.9398 88.1934 82.4639 88.1934C82.9834 88.1934 83.4095 88.0726 83.7422 87.8311C84.0794 87.5895 84.3278 87.2477 84.4873 86.8057C84.6468 86.3636 84.7266 85.8418 84.7266 85.2402C84.7266 84.6432 84.6468 84.1283 84.4873 83.6953C84.3278 83.2578 84.0817 82.9206 83.749 82.6836C83.4163 82.4466 82.9857 82.3281 82.457 82.3281C81.6777 82.3281 81.1058 82.5856 80.7412 83.1006C80.3812 83.6156 80.2012 84.3288 80.2012 85.2402ZM87.4746 84.502C87.4746 83.4355 87.5771 82.5264 87.7822 81.7744C87.9873 81.0179 88.304 80.4118 88.7324 79.9561C89.1654 79.4958 89.7214 79.1813 90.4004 79.0127C90.9837 78.8532 91.5762 78.7165 92.1777 78.6025C92.7793 78.484 93.3649 78.3815 93.9346 78.2949L94.1328 79.293C93.8457 79.334 93.5449 79.3818 93.2305 79.4365C92.916 79.4867 92.6016 79.5413 92.2871 79.6006C91.9727 79.6553 91.6764 79.7145 91.3984 79.7783C91.1204 79.8376 90.8743 79.8991 90.6602 79.9629C90.2728 80.0677 89.9378 80.25 89.6553 80.5098C89.3773 80.7695 89.1562 81.1273 88.9922 81.583C88.8327 82.0387 88.737 82.613 88.7051 83.3057H88.7871C88.9238 83.1051 89.1107 82.9069 89.3477 82.7109C89.5846 82.515 89.8672 82.3532 90.1953 82.2256C90.5234 82.0934 90.8926 82.0273 91.3027 82.0273C91.9499 82.0273 92.4899 82.1686 92.9229 82.4512C93.3558 82.7292 93.6816 83.1211 93.9004 83.627C94.1191 84.1328 94.2285 84.7253 94.2285 85.4043C94.2285 86.2201 94.0872 86.9059 93.8047 87.4619C93.5267 88.0179 93.1348 88.4372 92.6289 88.7197C92.123 88.9977 91.5283 89.1367 90.8447 89.1367C90.3161 89.1367 89.8421 89.0342 89.4229 88.8291C89.0081 88.624 88.6549 88.3232 88.3633 87.9268C88.0762 87.5303 87.8551 87.0449 87.7002 86.4707C87.5498 85.8965 87.4746 85.2402 87.4746 84.502ZM90.9336 88.1934C91.3665 88.1934 91.738 88.1022 92.0479 87.9199C92.3623 87.7376 92.6038 87.4505 92.7725 87.0586C92.9456 86.6621 93.0322 86.1471 93.0322 85.5137C93.0322 84.7207 92.8796 84.1009 92.5742 83.6543C92.2734 83.2031 91.7904 82.9775 91.125 82.9775C90.7103 82.9775 90.3343 83.0664 89.9971 83.2441C89.6598 83.4173 89.375 83.6247 89.1426 83.8662C88.9102 84.1077 88.7415 84.3242 88.6367 84.5156C88.6367 84.9805 88.6709 85.4316 88.7393 85.8691C88.8076 86.3066 88.9261 86.7008 89.0947 87.0518C89.2633 87.4027 89.4958 87.6807 89.792 87.8857C90.0928 88.0908 90.4733 88.1934 90.9336 88.1934ZM99.7109 81.3711C100.645 81.3711 101.39 81.6924 101.946 82.335C102.502 82.9775 102.78 83.9437 102.78 85.2334C102.78 86.0856 102.653 86.8011 102.397 87.3799C102.142 87.9587 101.782 88.3962 101.317 88.6924C100.857 88.9886 100.312 89.1367 99.6836 89.1367C99.2871 89.1367 98.9385 89.0843 98.6377 88.9795C98.3369 88.8747 98.0794 88.7334 97.8652 88.5557C97.651 88.3779 97.4733 88.1842 97.332 87.9746H97.25C97.2637 88.1523 97.2796 88.3665 97.2979 88.6172C97.3206 88.8678 97.332 89.0866 97.332 89.2734V92.3496H96.1904V81.5078H97.127L97.2773 82.6152H97.332C97.4779 82.3874 97.6556 82.18 97.8652 81.9932C98.0749 81.8018 98.3301 81.6514 98.6309 81.542C98.9362 81.4281 99.2962 81.3711 99.7109 81.3711ZM99.5127 82.3281C98.9932 82.3281 98.5739 82.4284 98.2549 82.6289C97.9404 82.8294 97.7103 83.1302 97.5645 83.5312C97.4186 83.9277 97.3411 84.4268 97.332 85.0283V85.2471C97.332 85.8805 97.4004 86.416 97.5371 86.8535C97.6784 87.291 97.9085 87.6237 98.2275 87.8516C98.5511 88.0794 98.984 88.1934 99.5264 88.1934C99.9912 88.1934 100.379 88.068 100.688 87.8174C100.998 87.5667 101.229 87.2181 101.379 86.7715C101.534 86.3203 101.611 85.8031 101.611 85.2197C101.611 84.3356 101.438 83.6338 101.092 83.1143C100.75 82.5902 100.224 82.3281 99.5127 82.3281ZM107.565 81.3848C108.459 81.3848 109.122 81.5853 109.555 81.9863C109.988 82.3874 110.204 83.0277 110.204 83.9072V89H109.377L109.158 87.8926H109.104C108.894 88.166 108.675 88.3962 108.447 88.583C108.219 88.7653 107.955 88.9043 107.654 89C107.358 89.0911 106.993 89.1367 106.561 89.1367C106.105 89.1367 105.699 89.057 105.344 88.8975C104.993 88.738 104.715 88.4964 104.51 88.1729C104.309 87.8493 104.209 87.4391 104.209 86.9424C104.209 86.195 104.505 85.6208 105.098 85.2197C105.69 84.8187 106.592 84.5999 107.805 84.5635L109.097 84.5088V84.0508C109.097 83.4036 108.958 82.9502 108.68 82.6904C108.402 82.4307 108.01 82.3008 107.504 82.3008C107.112 82.3008 106.738 82.3577 106.383 82.4717C106.027 82.5856 105.69 82.7201 105.371 82.875L105.022 82.0137C105.36 81.8405 105.747 81.6924 106.185 81.5693C106.622 81.4463 107.082 81.3848 107.565 81.3848ZM109.083 85.3086L107.941 85.3564C107.007 85.3929 106.349 85.5456 105.966 85.8145C105.583 86.0833 105.392 86.4639 105.392 86.9561C105.392 87.3844 105.521 87.7012 105.781 87.9062C106.041 88.1113 106.385 88.2139 106.813 88.2139C107.479 88.2139 108.023 88.0293 108.447 87.6602C108.871 87.291 109.083 86.7373 109.083 85.999V85.3086ZM117.648 82.4717H115.181V89H114.06V82.4717H111.626V81.5078H117.648V82.4717ZM120.273 84.5977H122.57C123.208 84.5977 123.739 84.6774 124.163 84.8369C124.587 84.9964 124.904 85.2334 125.113 85.5479C125.327 85.8623 125.435 86.252 125.435 86.7168C125.435 87.1816 125.33 87.585 125.12 87.9268C124.915 88.2686 124.596 88.5329 124.163 88.7197C123.735 88.9066 123.181 89 122.502 89H119.132V81.5078H120.273V84.5977ZM124.293 86.7715C124.293 86.3112 124.129 85.9922 123.801 85.8145C123.477 85.6322 123.024 85.541 122.44 85.541H120.273V88.0771H122.447C122.994 88.0771 123.438 87.9769 123.78 87.7764C124.122 87.5713 124.293 87.2363 124.293 86.7715ZM130.391 89.1367C129.716 89.1367 129.121 88.9977 128.606 88.7197C128.091 88.4417 127.69 88.0179 127.403 87.4482C127.116 86.8786 126.973 86.1608 126.973 85.2949C126.973 84.388 127.123 83.6475 127.424 83.0732C127.729 82.4945 128.148 82.0661 128.682 81.7881C129.215 81.5101 129.821 81.3711 130.5 81.3711C130.874 81.3711 131.234 81.4098 131.58 81.4873C131.931 81.5602 132.218 81.6536 132.441 81.7676L132.1 82.7178C131.872 82.6266 131.607 82.5446 131.307 82.4717C131.01 82.3988 130.732 82.3623 130.473 82.3623C129.953 82.3623 129.52 82.474 129.174 82.6973C128.832 82.9206 128.575 83.2487 128.401 83.6816C128.233 84.1146 128.148 84.6478 128.148 85.2812C128.148 85.8874 128.23 86.4046 128.395 86.833C128.563 87.2614 128.812 87.5895 129.14 87.8174C129.472 88.0407 129.887 88.1523 130.384 88.1523C130.78 88.1523 131.138 88.1113 131.457 88.0293C131.776 87.9427 132.065 87.8424 132.325 87.7285V88.7402C132.075 88.8678 131.794 88.9658 131.484 89.0342C131.179 89.1025 130.814 89.1367 130.391 89.1367ZM134.465 89H133.139L135.299 85.8418C134.984 85.7734 134.693 85.6572 134.424 85.4932C134.155 85.3245 133.936 85.0944 133.768 84.8027C133.604 84.5111 133.521 84.1488 133.521 83.7158C133.521 82.9958 133.761 82.4489 134.239 82.0752C134.722 81.6969 135.358 81.5078 136.146 81.5078H139.462V89H138.327V85.9922H136.427L134.465 89ZM134.622 83.7227C134.622 84.1693 134.782 84.502 135.101 84.7207C135.42 84.9349 135.875 85.042 136.468 85.042H138.327V82.458H136.27C135.686 82.458 135.265 82.5765 135.005 82.8135C134.75 83.0459 134.622 83.349 134.622 83.7227ZM142.627 86.2246V85.8691C142.627 85.5046 142.661 85.1924 142.729 84.9326C142.798 84.6683 142.916 84.4222 143.085 84.1943C143.258 83.9665 143.497 83.7249 143.803 83.4697C144.158 83.1735 144.438 82.9229 144.644 82.7178C144.853 82.5081 145.004 82.2985 145.095 82.0889C145.186 81.8792 145.231 81.6263 145.231 81.3301C145.231 80.8561 145.079 80.4938 144.773 80.2432C144.468 79.988 144.037 79.8604 143.481 79.8604C143.03 79.8604 142.629 79.9173 142.278 80.0312C141.927 80.1452 141.59 80.2819 141.267 80.4414L140.87 79.5254C141.244 79.3294 141.649 79.1699 142.087 79.0469C142.524 78.9238 143.012 78.8623 143.55 78.8623C144.429 78.8623 145.111 79.0811 145.594 79.5186C146.077 79.9515 146.318 80.5485 146.318 81.3096C146.318 81.7334 146.25 82.0957 146.113 82.3965C145.977 82.6927 145.783 82.9661 145.532 83.2168C145.282 83.4629 144.985 83.7249 144.644 84.0029C144.343 84.2581 144.113 84.4837 143.953 84.6797C143.794 84.8711 143.684 85.0693 143.625 85.2744C143.566 85.4749 143.536 85.7165 143.536 85.999V86.2246H142.627ZM142.326 88.2891C142.326 87.9701 142.401 87.7445 142.552 87.6123C142.702 87.4756 142.896 87.4072 143.133 87.4072C143.356 87.4072 143.545 87.4756 143.7 87.6123C143.86 87.7445 143.939 87.9701 143.939 88.2891C143.939 88.6035 143.86 88.8337 143.7 88.9795C143.545 89.1208 143.356 89.1914 143.133 89.1914C142.896 89.1914 142.702 89.1208 142.552 88.9795C142.401 88.8337 142.326 88.6035 142.326 88.2891Z" fill="#1F1F1F"/>
<path d="M254.5 15.5L245.5 24.5" stroke="#4C4C4C" stroke-linecap="round" stroke-linejoin="round"/>
<path d="M245.5 15.5L254.5 24.5" stroke="#4C4C4C" stroke-linecap="round" stroke-linejoin="round"/>
<path d="M27.9316 60H22.3672V50.0059H27.9316V51.0312H23.5293V54.2646H27.6787V55.2764H23.5293V58.9746H27.9316V60ZM38.7529 52.5078L35.6357 56.1514L39.0195 60H37.7207L34.4395 56.1992V60H33.3799V56.1992L30.1055 60H28.8066L32.1904 56.1514L29.0664 52.5078H30.3174L33.3799 56.1445V52.5078H34.4395V56.1445L37.5156 52.5078H38.7529ZM43.1553 52.3711C43.7933 52.3711 44.3402 52.5124 44.7959 52.7949C45.2516 53.0775 45.6003 53.474 45.8418 53.9844C46.0833 54.4902 46.2041 55.0827 46.2041 55.7617V56.4658H41.0293C41.043 57.3454 41.2617 58.0153 41.6855 58.4756C42.1094 58.9359 42.7064 59.166 43.4766 59.166C43.9505 59.166 44.3698 59.1227 44.7344 59.0361C45.099 58.9495 45.4772 58.8219 45.8691 58.6533V59.6514C45.4909 59.82 45.1149 59.943 44.7412 60.0205C44.3721 60.098 43.9346 60.1367 43.4287 60.1367C42.7087 60.1367 42.0798 59.9909 41.542 59.6992C41.0088 59.403 40.5941 58.9701 40.2979 58.4004C40.0016 57.8307 39.8535 57.1335 39.8535 56.3086C39.8535 55.502 39.988 54.8047 40.2568 54.2168C40.5303 53.6243 40.9131 53.1686 41.4053 52.8496C41.902 52.5306 42.4854 52.3711 43.1553 52.3711ZM43.1416 53.3008C42.5355 53.3008 42.0524 53.499 41.6924 53.8955C41.3324 54.292 41.1182 54.8457 41.0498 55.5566H45.0146C45.0101 55.11 44.9395 54.7181 44.8027 54.3809C44.6706 54.0391 44.4678 53.7747 44.1943 53.5879C43.9209 53.3965 43.57 53.3008 43.1416 53.3008ZM53.6211 52.5078V59.0361H54.6943V62.5908H53.5938V60H48.2891V62.5908H47.2021V59.0361H47.79C48.2184 58.4437 48.5739 57.7943 48.8564 57.0879C49.139 56.3815 49.3532 55.641 49.499 54.8662C49.6449 54.0869 49.7223 53.3008 49.7314 52.5078H53.6211ZM52.5205 53.4102H50.7432C50.7021 54.0755 50.6042 54.7523 50.4492 55.4404C50.2988 56.1286 50.0983 56.7848 49.8477 57.4092C49.597 58.029 49.3053 58.5713 48.9727 59.0361H52.5205V53.4102ZM57.3262 52.5078V55.6523H61.5029V52.5078H62.6377V60H61.5029V56.6162H57.3262V60H56.1846V52.5078H57.3262ZM67.9287 52.3711C68.5667 52.3711 69.1136 52.5124 69.5693 52.7949C70.0251 53.0775 70.3737 53.474 70.6152 53.9844C70.8568 54.4902 70.9775 55.0827 70.9775 55.7617V56.4658H65.8027C65.8164 57.3454 66.0352 58.0153 66.459 58.4756C66.8828 58.9359 67.4798 59.166 68.25 59.166C68.724 59.166 69.1432 59.1227 69.5078 59.0361C69.8724 58.9495 70.2507 58.8219 70.6426 58.6533V59.6514C70.2643 59.82 69.8883 59.943 69.5146 60.0205C69.1455 60.098 68.708 60.1367 68.2021 60.1367C67.4821 60.1367 66.8532 59.9909 66.3154 59.6992C65.7822 59.403 65.3675 58.9701 65.0713 58.4004C64.7751 57.8307 64.627 57.1335 64.627 56.3086C64.627 55.502 64.7614 54.8047 65.0303 54.2168C65.3037 53.6243 65.6865 53.1686 66.1787 52.8496C66.6755 52.5306 67.2588 52.3711 67.9287 52.3711ZM67.915 53.3008C67.3089 53.3008 66.8258 53.499 66.4658 53.8955C66.1058 54.292 65.8916 54.8457 65.8232 55.5566H69.7881C69.7835 55.11 69.7129 54.7181 69.5762 54.3809C69.444 54.0391 69.2412 53.7747 68.9678 53.5879C68.6943 53.3965 68.3434 53.3008 67.915 53.3008ZM78.8594 54.3877C78.8594 54.8571 78.7227 55.224 78.4492 55.4883C78.1758 55.748 77.8226 55.9235 77.3896 56.0146V56.0693C77.859 56.1331 78.2624 56.3018 78.5996 56.5752C78.9414 56.8441 79.1123 57.2565 79.1123 57.8125C79.1123 58.2409 79.0098 58.6191 78.8047 58.9473C78.5996 59.2754 78.2783 59.5329 77.8408 59.7197C77.4033 59.9066 76.8337 60 76.1318 60H72.9053V52.5078H76.1045C76.6423 52.5078 77.1162 52.5693 77.5264 52.6924C77.9411 52.8109 78.2669 53.0068 78.5039 53.2803C78.7409 53.5537 78.8594 53.9229 78.8594 54.3877ZM77.9297 57.8125C77.9297 57.3704 77.7611 57.0514 77.4238 56.8555C77.0911 56.6595 76.6058 56.5615 75.9678 56.5615H74.0469V59.0771H75.9951C76.624 59.0771 77.1025 58.9814 77.4307 58.79C77.7633 58.5941 77.9297 58.2682 77.9297 57.8125ZM77.7041 54.5176C77.7041 54.1621 77.5742 53.8978 77.3145 53.7246C77.0547 53.5469 76.6286 53.458 76.0361 53.458H74.0469V55.6113H75.8379C76.4531 55.6113 76.918 55.5225 77.2324 55.3447C77.5469 55.167 77.7041 54.8913 77.7041 54.5176ZM82.0859 52.5078V55.6523H86.2627V52.5078H87.3975V60H86.2627V56.6162H82.0859V60H80.9443V52.5078H82.0859ZM96.2637 56.2402C96.2637 56.8555 96.1839 57.4046 96.0244 57.8877C95.8649 58.3708 95.6348 58.7786 95.334 59.1113C95.0332 59.444 94.6686 59.6992 94.2402 59.877C93.8164 60.0501 93.3356 60.1367 92.7979 60.1367C92.2965 60.1367 91.8363 60.0501 91.417 59.877C91.0023 59.6992 90.6423 59.444 90.3369 59.1113C90.0361 58.7786 89.8014 58.3708 89.6328 57.8877C89.4688 57.4046 89.3867 56.8555 89.3867 56.2402C89.3867 55.4199 89.5257 54.7227 89.8037 54.1484C90.0817 53.5697 90.4782 53.1299 90.9932 52.8291C91.5127 52.5238 92.1302 52.3711 92.8457 52.3711C93.5293 52.3711 94.1263 52.5238 94.6367 52.8291C95.1517 53.1344 95.5505 53.5765 95.833 54.1553C96.1201 54.7295 96.2637 55.4245 96.2637 56.2402ZM90.5625 56.2402C90.5625 56.8418 90.6423 57.3636 90.8018 57.8057C90.9613 58.2477 91.2074 58.5895 91.54 58.8311C91.8727 59.0726 92.3011 59.1934 92.8252 59.1934C93.3447 59.1934 93.7708 59.0726 94.1035 58.8311C94.4408 58.5895 94.6891 58.2477 94.8486 57.8057C95.0081 57.3636 95.0879 56.8418 95.0879 56.2402C95.0879 55.6432 95.0081 55.1283 94.8486 54.6953C94.6891 54.2578 94.443 53.9206 94.1104 53.6836C93.7777 53.4466 93.347 53.3281 92.8184 53.3281C92.0391 53.3281 91.4671 53.5856 91.1025 54.1006C90.7425 54.6156 90.5625 55.3288 90.5625 56.2402ZM104.863 60.1367C104.189 60.1367 103.594 59.9977 103.079 59.7197C102.564 59.4417 102.163 59.0179 101.876 58.4482C101.589 57.8786 101.445 57.1608 101.445 56.2949C101.445 55.388 101.596 54.6475 101.896 54.0732C102.202 53.4945 102.621 53.0661 103.154 52.7881C103.688 52.5101 104.294 52.3711 104.973 52.3711C105.346 52.3711 105.706 52.4098 106.053 52.4873C106.404 52.5602 106.691 52.6536 106.914 52.7676L106.572 53.7178C106.344 53.6266 106.08 53.5446 105.779 53.4717C105.483 53.3988 105.205 53.3623 104.945 53.3623C104.426 53.3623 103.993 53.474 103.646 53.6973C103.305 53.9206 103.047 54.2487 102.874 54.6816C102.705 55.1146 102.621 55.6478 102.621 56.2812C102.621 56.8874 102.703 57.4046 102.867 57.833C103.036 58.2614 103.284 58.5895 103.612 58.8174C103.945 59.0407 104.36 59.1523 104.856 59.1523C105.253 59.1523 105.611 59.1113 105.93 59.0293C106.249 58.9427 106.538 58.8424 106.798 58.7285V59.7402C106.547 59.8678 106.267 59.9658 105.957 60.0342C105.652 60.1025 105.287 60.1367 104.863 60.1367ZM118.269 54.2646C118.269 54.8708 118.225 55.4609 118.139 56.0352C118.057 56.6094 117.913 57.1449 117.708 57.6416C117.507 58.1383 117.234 58.5736 116.888 58.9473C116.541 59.321 116.106 59.6149 115.582 59.8291C115.062 60.0387 114.44 60.1436 113.716 60.1436C113.52 60.1436 113.297 60.1299 113.046 60.1025C112.795 60.0798 112.59 60.0456 112.431 60V59.0156C112.599 59.0749 112.798 59.1227 113.025 59.1592C113.253 59.1911 113.477 59.207 113.695 59.207C114.548 59.207 115.217 59.0247 115.705 58.6602C116.193 58.291 116.544 57.792 116.758 57.1631C116.972 56.5296 117.093 55.8187 117.12 55.0303H117.038C116.901 55.249 116.721 55.4518 116.498 55.6387C116.279 55.821 116.013 55.9691 115.698 56.083C115.384 56.1924 115.017 56.2471 114.598 56.2471C114.019 56.2471 113.513 56.1286 113.08 55.8916C112.652 55.6546 112.317 55.3105 112.075 54.8594C111.838 54.4082 111.72 53.8636 111.72 53.2256C111.72 52.5374 111.85 51.9427 112.109 51.4414C112.374 50.9355 112.743 50.5459 113.217 50.2725C113.691 49.999 114.249 49.8623 114.892 49.8623C115.384 49.8623 115.835 49.9557 116.245 50.1426C116.655 50.3294 117.011 50.6097 117.312 50.9834C117.617 51.3525 117.852 51.8105 118.016 52.3574C118.184 52.9043 118.269 53.54 118.269 54.2646ZM114.892 50.8262C114.285 50.8262 113.793 51.0244 113.415 51.4209C113.041 51.8174 112.854 52.4144 112.854 53.2119C112.854 53.8727 113.016 54.3945 113.34 54.7773C113.663 55.1602 114.162 55.3516 114.837 55.3516C115.302 55.3516 115.703 55.2581 116.04 55.0713C116.382 54.8844 116.644 54.6475 116.826 54.3604C117.013 54.0732 117.106 53.7793 117.106 53.4785C117.106 53.1777 117.061 52.8724 116.97 52.5625C116.883 52.2526 116.749 51.9678 116.566 51.708C116.384 51.4437 116.154 51.2318 115.876 51.0723C115.598 50.9082 115.27 50.8262 114.892 50.8262ZM120.053 59.2891C120.053 58.9701 120.13 58.7445 120.285 58.6123C120.44 58.4756 120.629 58.4072 120.853 58.4072C121.085 58.4072 121.281 58.4756 121.44 58.6123C121.6 58.7445 121.68 58.9701 121.68 59.2891C121.68 59.6035 121.6 59.8337 121.44 59.9795C121.281 60.1208 121.085 60.1914 120.853 60.1914C120.629 60.1914 120.44 60.1208 120.285 59.9795C120.13 59.8337 120.053 59.6035 120.053 59.2891ZM120.053 53.2256C120.053 52.8975 120.13 52.6673 120.285 52.5352C120.44 52.3984 120.629 52.3301 120.853 52.3301C121.085 52.3301 121.281 52.3984 121.44 52.5352C121.6 52.6673 121.68 52.8975 121.68 53.2256C121.68 53.5355 121.6 53.7611 121.44 53.9023C121.281 54.0436 121.085 54.1143 120.853 54.1143C120.629 54.1143 120.44 54.0436 120.285 53.9023C120.13 53.7611 120.053 53.5355 120.053 53.2256ZM129.999 54.9893C129.999 55.8005 129.938 56.5251 129.814 57.1631C129.691 57.8011 129.498 58.3411 129.233 58.7832C128.969 59.2253 128.627 59.5625 128.208 59.7949C127.789 60.0228 127.285 60.1367 126.697 60.1367C125.954 60.1367 125.339 59.9339 124.852 59.5283C124.368 59.1227 124.006 58.5371 123.765 57.7715C123.528 57.0013 123.409 56.0739 123.409 54.9893C123.409 53.9229 123.516 53.0068 123.73 52.2412C123.949 51.471 124.3 50.8809 124.783 50.4707C125.266 50.056 125.904 49.8486 126.697 49.8486C127.449 49.8486 128.069 50.0537 128.557 50.4639C129.044 50.8695 129.407 51.4574 129.644 52.2275C129.881 52.9932 129.999 53.9137 129.999 54.9893ZM124.551 54.9893C124.551 55.9189 124.621 56.6937 124.763 57.3135C124.904 57.9333 125.132 58.3981 125.446 58.708C125.765 59.0133 126.182 59.166 126.697 59.166C127.212 59.166 127.627 59.0133 127.941 58.708C128.26 58.4027 128.491 57.9401 128.632 57.3203C128.778 56.7005 128.851 55.9235 128.851 54.9893C128.851 54.0732 128.78 53.3076 128.639 52.6924C128.497 52.0726 128.27 51.6077 127.955 51.2979C127.641 50.9834 127.221 50.8262 126.697 50.8262C126.173 50.8262 125.754 50.9834 125.439 51.2979C125.125 51.6077 124.897 52.0726 124.756 52.6924C124.619 53.3076 124.551 54.0732 124.551 54.9893ZM138.011 54.9893C138.011 55.8005 137.949 56.5251 137.826 57.1631C137.703 57.8011 137.509 58.3411 137.245 58.7832C136.981 59.2253 136.639 59.5625 136.22 59.7949C135.8 60.0228 135.297 60.1367 134.709 60.1367C133.966 60.1367 133.351 59.9339 132.863 59.5283C132.38 59.1227 132.018 58.5371 131.776 57.7715C131.539 57.0013 131.421 56.0739 131.421 54.9893C131.421 53.9229 131.528 53.0068 131.742 52.2412C131.961 51.471 132.312 50.8809 132.795 50.4707C133.278 50.056 133.916 49.8486 134.709 49.8486C135.461 49.8486 136.081 50.0537 136.568 50.4639C137.056 50.8695 137.418 51.4574 137.655 52.2275C137.892 52.9932 138.011 53.9137 138.011 54.9893ZM132.562 54.9893C132.562 55.9189 132.633 56.6937 132.774 57.3135C132.916 57.9333 133.144 58.3981 133.458 58.708C133.777 59.0133 134.194 59.166 134.709 59.166C135.224 59.166 135.639 59.0133 135.953 58.708C136.272 58.4027 136.502 57.9401 136.644 57.3203C136.789 56.7005 136.862 55.9235 136.862 54.9893C136.862 54.0732 136.792 53.3076 136.65 52.6924C136.509 52.0726 136.281 51.6077 135.967 51.2979C135.652 50.9834 135.233 50.8262 134.709 50.8262C134.185 50.8262 133.766 50.9834 133.451 51.2979C133.137 51.6077 132.909 52.0726 132.768 52.6924C132.631 53.3076 132.562 54.0732 132.562 54.9893ZM149.051 52.5078V59.0361H150.124V62.5908H149.023V60H143.719V62.5908H142.632V59.0361H143.22C143.648 58.4437 144.004 57.7943 144.286 57.0879C144.569 56.3815 144.783 55.641 144.929 54.8662C145.075 54.0869 145.152 53.3008 145.161 52.5078H149.051ZM147.95 53.4102H146.173C146.132 54.0755 146.034 54.7523 145.879 55.4404C145.729 56.1286 145.528 56.7848 145.277 57.4092C145.027 58.029 144.735 58.5713 144.402 59.0361H147.95V53.4102ZM158.074 56.2402C158.074 56.8555 157.994 57.4046 157.835 57.8877C157.675 58.3708 157.445 58.7786 157.145 59.1113C156.844 59.444 156.479 59.6992 156.051 59.877C155.627 60.0501 155.146 60.1367 154.608 60.1367C154.107 60.1367 153.647 60.0501 153.228 59.877C152.813 59.6992 152.453 59.444 152.147 59.1113C151.847 58.7786 151.612 58.3708 151.443 57.8877C151.279 57.4046 151.197 56.8555 151.197 56.2402C151.197 55.4199 151.336 54.7227 151.614 54.1484C151.892 53.5697 152.289 53.1299 152.804 52.8291C153.323 52.5238 153.941 52.3711 154.656 52.3711C155.34 52.3711 155.937 52.5238 156.447 52.8291C156.962 53.1344 157.361 53.5765 157.644 54.1553C157.931 54.7295 158.074 55.4245 158.074 56.2402ZM152.373 56.2402C152.373 56.8418 152.453 57.3636 152.612 57.8057C152.772 58.2477 153.018 58.5895 153.351 58.8311C153.683 59.0726 154.112 59.1934 154.636 59.1934C155.155 59.1934 155.581 59.0726 155.914 58.8311C156.251 58.5895 156.5 58.2477 156.659 57.8057C156.819 57.3636 156.898 56.8418 156.898 56.2402C156.898 55.6432 156.819 55.1283 156.659 54.6953C156.5 54.2578 156.254 53.9206 155.921 53.6836C155.588 53.4466 155.158 53.3281 154.629 53.3281C153.85 53.3281 153.278 53.5856 152.913 54.1006C152.553 54.6156 152.373 55.3288 152.373 56.2402ZM169.716 60H163.167V59.0498L165.84 56.3359C166.337 55.8346 166.754 55.388 167.091 54.9961C167.433 54.6042 167.692 54.2191 167.87 53.8408C168.048 53.458 168.137 53.0387 168.137 52.583C168.137 52.0179 167.968 51.5872 167.631 51.291C167.298 50.9902 166.858 50.8398 166.312 50.8398C165.833 50.8398 165.409 50.9219 165.04 51.0859C164.671 51.25 164.293 51.4824 163.905 51.7832L163.297 51.0176C163.561 50.7943 163.848 50.596 164.158 50.4229C164.473 50.2497 164.808 50.113 165.163 50.0127C165.523 49.9124 165.906 49.8623 166.312 49.8623C166.927 49.8623 167.458 49.9694 167.904 50.1836C168.351 50.3978 168.695 50.7031 168.937 51.0996C169.183 51.4961 169.306 51.9678 169.306 52.5146C169.306 53.0433 169.201 53.5355 168.991 53.9912C168.782 54.4424 168.488 54.8913 168.109 55.3379C167.731 55.7799 167.289 56.2493 166.783 56.7461L164.609 58.9131V58.9609H169.716V60ZM175.403 60H174.296V52.918C174.296 52.6491 174.296 52.4189 174.296 52.2275C174.3 52.0316 174.305 51.8538 174.31 51.6943C174.319 51.5303 174.33 51.3639 174.344 51.1953C174.202 51.3411 174.07 51.4665 173.947 51.5713C173.824 51.6715 173.672 51.7969 173.489 51.9473L172.348 52.8633L171.753 52.0908L174.46 50.0059H175.403V60ZM179.525 59.2891C179.525 58.9701 179.603 58.7445 179.758 58.6123C179.913 58.4756 180.102 58.4072 180.325 58.4072C180.558 58.4072 180.754 58.4756 180.913 58.6123C181.073 58.7445 181.152 58.9701 181.152 59.2891C181.152 59.6035 181.073 59.8337 180.913 59.9795C180.754 60.1208 180.558 60.1914 180.325 60.1914C180.102 60.1914 179.913 60.1208 179.758 59.9795C179.603 59.8337 179.525 59.6035 179.525 59.2891ZM179.525 53.2256C179.525 52.8975 179.603 52.6673 179.758 52.5352C179.913 52.3984 180.102 52.3301 180.325 52.3301C180.558 52.3301 180.754 52.3984 180.913 52.5352C181.073 52.6673 181.152 52.8975 181.152 53.2256C181.152 53.5355 181.073 53.7611 180.913 53.9023C180.754 54.0436 180.558 54.1143 180.325 54.1143C180.102 54.1143 179.913 54.0436 179.758 53.9023C179.603 53.7611 179.525 53.5355 179.525 53.2256ZM189.472 54.9893C189.472 55.8005 189.41 56.5251 189.287 57.1631C189.164 57.8011 188.97 58.3411 188.706 58.7832C188.442 59.2253 188.1 59.5625 187.681 59.7949C187.261 60.0228 186.758 60.1367 186.17 60.1367C185.427 60.1367 184.812 59.9339 184.324 59.5283C183.841 59.1227 183.479 58.5371 183.237 57.7715C183 57.0013 182.882 56.0739 182.882 54.9893C182.882 53.9229 182.989 53.0068 183.203 52.2412C183.422 51.471 183.773 50.8809 184.256 50.4707C184.739 50.056 185.377 49.8486 186.17 49.8486C186.922 49.8486 187.542 50.0537 188.029 50.4639C188.517 50.8695 188.879 51.4574 189.116 52.2275C189.353 52.9932 189.472 53.9137 189.472 54.9893ZM184.023 54.9893C184.023 55.9189 184.094 56.6937 184.235 57.3135C184.377 57.9333 184.604 58.3981 184.919 58.708C185.238 59.0133 185.655 59.166 186.17 59.166C186.685 59.166 187.1 59.0133 187.414 58.708C187.733 58.4027 187.963 57.9401 188.104 57.3203C188.25 56.7005 188.323 55.9235 188.323 54.9893C188.323 54.0732 188.253 53.3076 188.111 52.6924C187.97 52.0726 187.742 51.6077 187.428 51.2979C187.113 50.9834 186.694 50.8262 186.17 50.8262C185.646 50.8262 185.227 50.9834 184.912 51.2979C184.598 51.6077 184.37 52.0726 184.229 52.6924C184.092 53.3076 184.023 54.0732 184.023 54.9893ZM197.483 54.9893C197.483 55.8005 197.422 56.5251 197.299 57.1631C197.176 57.8011 196.982 58.3411 196.718 58.7832C196.453 59.2253 196.112 59.5625 195.692 59.7949C195.273 60.0228 194.77 60.1367 194.182 60.1367C193.439 60.1367 192.824 59.9339 192.336 59.5283C191.853 59.1227 191.491 58.5371 191.249 57.7715C191.012 57.0013 190.894 56.0739 190.894 54.9893C190.894 53.9229 191.001 53.0068 191.215 52.2412C191.434 51.471 191.785 50.8809 192.268 50.4707C192.751 50.056 193.389 49.8486 194.182 49.8486C194.934 49.8486 195.553 50.0537 196.041 50.4639C196.529 50.8695 196.891 51.4574 197.128 52.2275C197.365 52.9932 197.483 53.9137 197.483 54.9893ZM192.035 54.9893C192.035 55.9189 192.106 56.6937 192.247 57.3135C192.388 57.9333 192.616 58.3981 192.931 58.708C193.25 59.0133 193.667 59.166 194.182 59.166C194.697 59.166 195.111 59.0133 195.426 58.708C195.745 58.4027 195.975 57.9401 196.116 57.3203C196.262 56.7005 196.335 55.9235 196.335 54.9893C196.335 54.0732 196.264 53.3076 196.123 52.6924C195.982 52.0726 195.754 51.6077 195.439 51.2979C195.125 50.9834 194.706 50.8262 194.182 50.8262C193.658 50.8262 193.238 50.9834 192.924 51.2979C192.609 51.6077 192.382 52.0726 192.24 52.6924C192.104 53.3076 192.035 54.0732 192.035 54.9893Z" fill="#1F1F1F"/>
</svg>
