<svg width="52" height="52" viewBox="0 0 52 52" fill="none" xmlns="http://www.w3.org/2000/svg">
<circle cx="26" cy="26" r="26" fill="#F95707"/>
<path d="M25.9997 13.7646C21.3614 13.7646 17.5879 17.5804 17.5879 22.2705C17.5879 28.1655 26.0079 38.2352 26.0079 38.2352C26.0079 38.2352 34.4114 27.8756 34.4114 22.2705C34.4114 17.5804 30.638 13.7646 25.9997 13.7646ZM28.5377 24.761C27.8378 25.4685 26.9188 25.8224 25.9997 25.8224C25.0806 25.8224 24.1613 25.4685 23.4618 24.761C22.0623 23.346 22.0623 21.0435 23.4618 19.6284C24.1395 18.9428 25.0409 18.5653 25.9997 18.5653C26.9584 18.5653 27.8597 18.943 28.5377 19.6284C29.9372 21.0435 29.9372 23.346 28.5377 24.761Z" fill="white"/>
</svg>
