<svg width="134" height="134" viewBox="0 0 134 134" fill="none" xmlns="http://www.w3.org/2000/svg">
<g opacity="0.8">
<path fill-rule="evenodd" clip-rule="evenodd" d="M66.7642 105.03C66.0564 104.841 65.3487 104.652 64.6409 104.416C63.9804 104.18 63.4614 104.039 62.8008 103.756C61.574 103.189 60.3944 102.67 59.4036 101.915C58.8374 101.491 58.3184 101.208 57.7994 100.783C56.7614 100.028 54.4022 97.9521 54.1191 96.9141L66.717 96.8669L66.7642 105.03ZM67.8966 96.8669L82.6649 96.7725C79.9282 102.057 73.7473 105.171 67.9437 105.218L67.8966 96.8669ZM61.2909 104.699C59.1677 104.652 53.0811 102.765 51.2409 101.868C48.7402 100.642 45.4374 98.8958 43.267 97.0556L52.1846 97.0085C55.8649 101.491 56.8085 101.68 61.2909 104.699ZM67.8494 84.8352C74.2663 84.788 80.2114 83.75 83.1839 89.0345C84.4578 91.3465 83.986 93.0923 83.467 95.4042L67.9437 95.4986L67.8494 84.8352ZM53.1283 95.593C51.9959 94.3662 50.1085 90.45 49.967 84.9296L66.717 84.8352L66.7642 95.4986L53.1283 95.593ZM51.524 95.593C49.0705 95.593 46.2867 95.593 43.8332 95.6401C41.9459 95.6401 42.9839 95.6873 41.5684 95.6401C40.3416 94.6493 36.6613 90.6859 35.7177 89.3648C34.7268 87.9965 33.8304 86.4866 33.0283 84.9768L48.5987 84.8824C49.0233 89.8366 50.1085 93.281 51.524 95.593ZM30.1973 82.0986C30.5275 83.5141 32.9811 87.5718 33.8304 88.7514C35.7649 91.5352 37.8881 94.0359 40.4832 96.3007L44.1635 99.2261C46.9473 101.208 48.1268 101.632 50.8635 103.001C55.7705 105.407 62.0459 106.445 67.755 106.398C75.0684 106.351 79.0318 104.086 83.0895 100.736C90.686 94.5549 90.9691 85.0711 81.674 82.4761C78.7959 81.6739 75.4459 81.8627 71.8599 81.8627C57.9881 81.957 44.0691 82.0514 30.1973 82.0986Z" fill="#1F1F1F" stroke="#1F1F1F" stroke-miterlimit="10"/>
<path fill-rule="evenodd" clip-rule="evenodd" d="M67.5661 36.284L81.1548 36.3312C83.8443 39.7284 84.5048 44.6354 84.5048 47.2303L67.6133 47.3247L67.5661 36.284ZM50.2971 39.634C50.2971 38.6431 50.5802 36.5199 51.4295 36.5199L66.3865 36.3784L66.4337 47.3247C62.0457 47.3718 56.3365 47.938 53.2225 45.4847C53.0337 45.3431 52.8922 45.2016 52.7034 45.06C51.2408 43.7389 50.3443 41.7572 50.2971 39.634ZM82.7591 36.3312C84.0802 36.3312 90.733 36.2368 92.3372 36.2368C95.7816 39.3981 98.9901 42.5122 101.113 47.0889C96.3478 47.1361 90.5443 47.1831 85.7788 47.1831C85.4957 42.0403 84.5992 39.4453 82.7591 36.3312ZM67.5189 27.0833C72.1901 27.1305 78.9372 31.7072 80.5415 35.1988L67.5661 35.246L67.5189 27.0833ZM66.3394 26.9417L66.3865 35.2931L51.6654 35.3875C52.1372 33.5946 55.4872 30.5748 57.233 29.4896C59.2147 28.1685 63.0837 26.9417 66.3394 26.9417ZM71.8126 27.0361C77.7577 27.5079 88.4682 32.0847 91.2048 35.1044L82.0985 35.1988C80.1168 31.4713 75.7288 28.4516 71.8126 27.0361ZM45.4844 41.2382C45.4844 43.3143 46.5224 45.6734 47.9851 47.0889C49.4478 48.5514 51.2408 49.4007 53.7415 49.8254C58.4126 50.6275 64.8295 50.25 70.1612 50.2028C81.4851 50.1556 92.8091 50.0613 104.133 50.0141C103.567 47.5606 100.217 42.7009 98.6126 40.7192C92.3844 32.934 85.071 28.8762 75.7288 26.5643C70.5386 25.2431 62.6119 25.196 57.7048 27.2248C53.9302 28.7819 50.2499 31.6129 47.7964 34.8213C46.8527 36.1896 45.4844 39.0206 45.4844 41.2382Z" fill="#1F1F1F" stroke="#1F1F1F" stroke-miterlimit="10"/>
<path fill-rule="evenodd" clip-rule="evenodd" d="M30.4805 100.17C30.7636 100.736 30.2446 100.264 31.4241 101.396L35.5291 105.077C38.3129 107.342 40.5305 108.851 43.6917 110.503C44.541 110.975 45.296 111.494 46.0981 111.965L56.7142 117.014C57.2804 117.25 57.5635 117.392 58.0825 117.58C60.4417 118.571 62.2818 119.043 64.3107 121.025C65.2544 121.968 67.1417 124.28 67.2832 125.837H67.6607C67.8022 124.28 69.6424 121.968 70.5861 121.025C72.0487 119.562 73.417 118.901 75.3987 118.052L88.61 111.777C92.1015 109.606 96.1121 107.625 99.1318 104.841C100.359 103.756 103.237 101.349 103.992 100.217L96.348 101.727C95.4044 101.915 94.9325 102.199 93.8945 102.199C94.3192 102.765 94.5551 102.623 95.0741 103.378C94.8382 104.463 94.0832 104.699 93.2339 105.218C91.3466 106.351 88.2797 108.049 86.3452 108.851C84.1276 109.795 80.9192 111.116 78.4656 111.635C77.522 111.824 76.6255 112.201 75.5403 112.201C70.303 112.249 71.1994 111.352 69.3121 110.88V107.955H65.6318V110.267C65.6318 111.305 62.4234 112.201 61.1966 112.249C57.7051 112.249 59.4037 112.343 56.148 111.682C53.3642 111.116 48.5044 109.087 45.9093 107.813C44.4939 107.106 40.0115 105.124 39.5868 103.661C40.0586 102.906 40.3417 103.048 40.7664 102.482C39.9171 102.482 38.9734 102.057 38.077 101.915C37.2277 101.727 36.4727 101.538 35.5291 101.349C34.7269 101.208 33.8305 100.972 32.9812 100.783C32.1791 100.547 31.141 100.5 30.4805 100.17Z" fill="#1F1F1F" stroke="#1F1F1F" stroke-miterlimit="10"/>
<path fill-rule="evenodd" clip-rule="evenodd" d="M26.7995 64.4519L107.53 64.0272C107.53 63.1308 107.294 61.2906 107.105 60.5357C88.5623 60.6301 69.9721 60.7244 51.4292 60.8188C44.7763 60.866 37.4157 62.1399 33.122 56.8554C30.7629 53.9301 31.1875 50.7688 31.1875 47.8906C29.2058 50.1554 26.7523 60.4413 26.7995 64.4519Z" fill="#1F1F1F" stroke="#1F1F1F" stroke-miterlimit="10"/>
<path fill-rule="evenodd" clip-rule="evenodd" d="M27.2238 71.624L82.8999 71.3409C90.2133 71.2937 100.641 69.4064 103 79.1261C103.472 81.155 103.142 82.0515 103.189 84.2219C103.189 84.1747 103.236 84.0804 103.283 84.0804C103.425 84.505 106.397 76.767 107.105 72.379C107.294 71.2466 107.624 69.029 107.577 67.6606L26.8464 68.0853C26.7992 69.1705 27.1295 70.6804 27.2238 71.624Z" fill="#1F1F1F" stroke="#1F1F1F" stroke-miterlimit="10"/>
<path fill-rule="evenodd" clip-rule="evenodd" d="M28.8278 78.6068C41.237 78.5597 53.6462 78.4653 66.1026 78.4181C71.3871 78.3709 79.9272 77.8519 84.268 78.7956C89.1751 79.8336 92.9025 83.8914 92.9497 88.9871C92.9497 92.9505 90.4962 96.7252 88.7504 100.075C89.411 99.8864 91.5342 98.0935 92.1948 97.4801C92.6666 97.0554 93.2328 96.4892 93.6575 96.0174C96.0638 93.2336 98.423 89.2702 98.423 85.4484C98.423 82.5702 97.0547 79.6449 95.6392 78.135C95.0258 77.4745 93.5159 76.4836 92.6195 76.1061C91.723 75.7287 89.6941 75.1153 88.6561 75.0209C85.8251 74.8322 72.4723 75.1153 68.5089 75.1153C54.9673 75.2097 41.4729 75.2568 27.9785 75.3512C28.2616 76.2005 28.3088 77.6632 28.8278 78.6068Z" fill="#1F1F1F" stroke="#1F1F1F" stroke-miterlimit="10"/>
<path fill-rule="evenodd" clip-rule="evenodd" d="M106.493 56.8085C106.068 55.912 106.021 54.5437 105.502 53.5057C92.9983 53.5529 80.5419 53.6472 68.0384 53.6944C63.1786 53.7416 53.5532 54.2134 49.9673 53.2226C46.1925 52.2317 43.6446 50.4388 42.2291 46.9472C40.6721 43.1254 41.5214 40.4831 42.9841 36.9916C43.3143 36.1423 43.8334 35.1043 44.258 34.3965C44.5883 33.8303 45.4376 32.462 45.5791 31.8486C40.389 35.3874 35.3404 41.1909 36.1897 48.2212C36.6143 52.043 38.7376 54.5437 41.7101 55.912C45.2017 57.5162 48.7877 57.0916 53.6948 57.0916C71.2941 56.9972 88.8934 56.9029 106.493 56.8085Z" fill="#1F1F1F" stroke="#1F1F1F" stroke-miterlimit="10"/>
<path fill-rule="evenodd" clip-rule="evenodd" d="M17.2703 60.819C17.2703 61.338 21.6111 68.0852 22.3661 68.557C22.3661 67.519 22.1773 67.4718 22.1302 66.6225L22.5548 60.6774L24.0175 53.6C24.0175 51.2408 22.602 46.2865 22.602 43.314C21.8942 43.833 21.1865 46.0506 20.7147 47.0886C19.3464 50.2972 17.2231 57.5162 17.2703 60.819Z" fill="#1F1F1F" stroke="#1F1F1F" stroke-miterlimit="10"/>
<path fill-rule="evenodd" clip-rule="evenodd" d="M27.3197 87.0055C27.2254 86.628 25.574 83.278 25.0078 81.5323C24.6775 80.5414 24.3 79.5506 24.0169 78.6069L22.5542 72.2844L18.7796 68.2738C18.4493 67.8492 18.2606 67.5661 17.9303 67.1414C17.6 66.7168 17.4113 66.3865 16.9395 66.1978C16.9395 69.2647 17.5057 73.6527 18.119 76.7196L19.8176 82.8062C20.1951 83.797 19.9592 83.2309 20.8085 83.7971C22.7902 85.1182 22.8845 85.59 25.8099 86.5337C26.3761 86.7224 26.8951 86.7696 27.3197 87.0055Z" fill="#1F1F1F" stroke="#1F1F1F" stroke-miterlimit="10"/>
<path fill-rule="evenodd" clip-rule="evenodd" d="M112.014 69.5952C112.675 68.7931 113.241 68.1325 113.854 67.1889L115.553 64.5938C115.93 64.0276 117.063 62.3762 117.157 61.9044C117.251 61.4797 116.78 58.6487 116.685 57.9882C116.355 55.8649 114.185 46.6643 112.439 44.6826L111.07 53.7889C110.551 57.3748 111.92 58.1769 111.967 62.7536C111.967 64.122 112.203 64.7825 112.203 66.0565C112.156 67.2832 111.967 68.1797 112.014 69.5952Z" fill="#1F1F1F" stroke="#1F1F1F" stroke-miterlimit="10"/>
<path fill-rule="evenodd" clip-rule="evenodd" d="M107.248 86.5344C109.371 86.5344 111.353 85.5907 112.674 84.7886C114.42 83.7034 114.467 83.3259 115.364 80.1175C116.449 76.1541 117.251 72.3323 117.251 67.2837C116.543 67.7555 116.213 68.4633 115.552 69.0767L111.872 72.7569C111.117 73.6062 111.495 73.8893 111.07 75.6351C110.598 77.7112 110.079 79.4097 109.418 81.3443L107.248 86.5344Z" fill="#1F1F1F" stroke="#1F1F1F" stroke-miterlimit="10"/>
<path fill-rule="evenodd" clip-rule="evenodd" d="M25.5247 48.6929C26.0909 48.2682 25.8078 48.457 26.0909 47.7492C26.2796 47.3718 26.4683 46.947 26.6571 46.5696L28.4028 43.2667C30.3845 39.728 32.2719 38.0766 33.4514 36.2836C33.9233 35.5287 34.0176 34.7266 34.112 33.6414C34.3007 31.8956 34.5366 29.9139 34.112 28.2153C33.4514 28.64 32.7909 29.4421 32.0831 30.0555L30.6676 31.5653C30.4789 31.8012 30.3845 31.9428 30.1014 32.1787C28.6859 33.6414 27.6479 35.0097 26.4211 36.6611C24.1092 39.7752 24.1564 39.6808 24.2979 41.7097C24.5338 45.5787 25.3831 46.947 25.5247 48.6929Z" fill="#1F1F1F" stroke="#1F1F1F" stroke-miterlimit="10"/>
<path fill-rule="evenodd" clip-rule="evenodd" d="M109.182 49.6364C109.748 47.0415 110.267 46.7584 110.692 42.9837C110.975 40.5774 110.503 40.5774 108.427 37.5105L105.832 34.0661C105.455 33.6415 105.219 33.3112 104.888 32.8865L100.736 28.876C100.736 31.6126 100.736 36.1894 102.388 38.171C103.473 39.4922 105.124 41.9457 106.021 43.5027L107.955 47.1829C108.333 47.985 108.663 49.259 109.182 49.6364Z" fill="#1F1F1F" stroke="#1F1F1F" stroke-miterlimit="10"/>
<path fill-rule="evenodd" clip-rule="evenodd" d="M88.2793 26.4226C88.2793 24.205 87.0054 19.9585 85.5899 19.3451C83.2779 18.3071 76.4364 16.3726 74.2188 16.3726C74.549 17.7881 75.304 19.3923 75.9173 20.7134C76.7194 22.4592 75.6814 21.8458 79.7392 22.931C81.3906 23.4028 82.7589 23.9219 84.2216 24.4881L88.2793 26.4226Z" fill="#1F1F1F" stroke="#1F1F1F" stroke-miterlimit="10"/>
<path fill-rule="evenodd" clip-rule="evenodd" d="M37.0866 99.5562C36.6147 98.8013 33.5478 96.0646 32.2739 94.4604L29.4901 90.6386C28.7823 89.6006 28.688 89.8365 27.414 89.4118C25.857 88.8928 24.0168 88.1851 22.0352 88.1851C22.9316 89.8365 27.2725 97.5273 28.5936 98.1407C29.3485 98.471 35.907 99.5562 37.0866 99.5562Z" fill="#1F1F1F" stroke="#1F1F1F" stroke-miterlimit="10"/>
<path fill-rule="evenodd" clip-rule="evenodd" d="M97.8105 99.226C99.1789 99.226 105.218 98.3767 105.973 97.8577C107.011 97.15 111.918 89.5063 112.296 87.8549C110.88 87.9021 108.474 88.8458 107.294 89.2704C104.369 90.3556 104.699 91.0162 102.434 93.9415C102.151 94.319 102.01 94.4134 101.727 94.7908C101.349 95.2155 101.349 95.3098 100.925 95.7345C100.358 96.3479 99.8394 96.7725 99.3204 97.4331L99.0373 97.7162C98.4239 98.3768 97.9993 98.4239 97.8105 99.226Z" fill="#1F1F1F" stroke="#1F1F1F" stroke-miterlimit="10"/>
<path fill-rule="evenodd" clip-rule="evenodd" d="M46.7578 25.8567C46.9937 25.8095 52.1838 23.6391 54.8261 22.837C57.1852 22.1293 57.0909 22.837 58.0345 20.6194C58.3648 19.8173 59.45 17.2222 59.4972 16.4673C57.7514 16.4673 52.231 17.9771 50.5796 18.6377C49.3528 19.1095 48.9282 18.968 47.8902 21.4215C47.324 22.7898 46.7578 23.9222 46.7578 25.8567Z" fill="#1F1F1F" stroke="#1F1F1F" stroke-miterlimit="10"/>
<path fill-rule="evenodd" clip-rule="evenodd" d="M36.707 32.934C38.0282 32.0375 39.7268 30.3861 41.5197 29.1593C43.7845 27.6494 43.407 28.31 43.7845 27.1776C44.681 24.5354 45.6718 22.7424 46.9458 20.2417C45.5775 20.3361 38.9718 24.3466 37.5091 25.5734C37.0373 25.9509 37.3204 25.6206 37.1317 25.998C36.707 26.7058 36.707 31.7072 36.707 32.934Z" fill="#1F1F1F" stroke="#1F1F1F" stroke-miterlimit="10"/>
<path fill-rule="evenodd" clip-rule="evenodd" d="M98.424 33.5475L98.1881 28.1214C98.0937 25.951 98.1881 26.6115 95.6874 24.7714C94.4134 23.8277 89.7423 20.9496 88.2324 20.5721C89.8838 23.0256 91.5824 28.1686 91.8183 28.4517L96.7726 32.2263C97.3859 32.7454 97.6219 33.3587 98.424 33.5475Z" fill="#1F1F1F" stroke="#1F1F1F" stroke-miterlimit="10"/>
<path fill-rule="evenodd" clip-rule="evenodd" d="M66.9537 12.3623L68.6995 16.3257L72.4269 16.2785L69.596 18.213L70.7284 21.8461L66.9537 19.9116L63.2262 21.8933L64.3115 18.2602L61.4805 16.3257H65.2079L66.9537 12.3623Z" fill="#1F1F1F" stroke="#1F1F1F" stroke-miterlimit="10"/>
<path d="M12.079 86.3923C10.9938 86.9113 9.71987 87.5246 8.7762 87.9493C9.81423 87.8549 10.8994 87.7134 12.1734 87.6662L16.5614 87.4303L16.8917 88.1852L13.6832 91.0634C12.7396 91.9127 11.8431 92.6204 11.041 93.2338C12.0318 92.8563 13.353 92.3373 14.5325 91.9127L17.9769 90.6859L18.4016 91.6296L10.3804 94.4134L9.81423 93.1394L13.0227 90.2141C13.8248 89.4592 14.5797 88.8458 15.3347 88.3268C14.4382 88.4683 13.4945 88.5627 12.3621 88.6099L8.02128 88.8458L7.45508 87.5718L15.0516 83.75L15.4762 84.7408L12.079 86.3923Z" fill="#1F1F1F" stroke="#1F1F1F"/>
<path d="M8.02072 70.2558C10.8989 69.8783 12.6918 71.4354 12.9749 73.5586C13.258 75.7762 11.7482 77.5692 9.20029 77.8995C6.51086 78.2769 4.57637 76.8614 4.24609 74.5966C3.9158 72.3319 5.52001 70.5861 8.02072 70.2558ZM9.01156 76.7671C10.8045 76.5312 12.3144 75.3516 12.0785 73.6058C11.8425 71.9072 10.144 71.1051 8.20945 71.3882C6.51086 71.6241 4.90663 72.7093 5.14255 74.5495C5.37846 76.3424 7.17142 77.003 9.01156 76.7671Z" fill="#1F1F1F" stroke="#1F1F1F"/>
<path d="M4.05834 61.904C4.01115 61.385 4.01115 60.6772 4.10552 59.7808C4.19988 58.6955 4.53016 57.9406 5.0492 57.4688C5.47384 57.0441 6.13441 56.8554 6.88934 56.9026C7.64427 56.997 8.21046 57.2801 8.63511 57.7519C9.20131 58.4124 9.39004 59.3561 9.29568 60.4413C9.24849 60.7716 9.20131 61.0547 9.10694 61.2906L12.5041 61.6209L12.4098 62.7061L4.05834 61.904ZM8.21046 61.2434C8.30483 61.0075 8.35201 60.7244 8.3992 60.347C8.54075 59.0258 7.97455 58.1765 6.84215 58.035C5.70976 57.9406 5.09638 58.6484 4.95483 59.8279C4.90765 60.2998 4.90765 60.6772 4.95483 60.866L8.21046 61.2434Z" fill="#1F1F1F" stroke="#1F1F1F"/>
<path d="M16.089 45.1542C16.1362 45.5788 16.089 46.4281 15.7587 47.4188C14.9566 49.6836 12.9749 50.8632 10.3327 49.9667C7.83197 49.1174 6.69958 46.8056 7.54888 44.352C7.87916 43.3612 8.30381 42.795 8.53972 42.5591L9.29465 43.1253C8.96437 43.4556 8.63409 43.9274 8.39817 44.6351C7.73761 46.5225 8.53972 48.1738 10.6158 48.8815C12.5975 49.5421 14.2489 48.8815 14.9094 46.9471C15.1454 46.2865 15.2397 45.626 15.1454 45.1542H16.089Z" fill="#1F1F1F" stroke="#1F1F1F"/>
<path d="M12.8335 33.642L15.9947 35.6237L16.1835 35.3406L14.5321 30.8582L15.2398 29.7729L16.844 34.5384C17.7405 33.4532 18.7785 33.4532 19.9581 33.6891C20.8546 33.8779 21.6567 34.0666 22.506 34.161L21.8926 35.1518C21.2321 35.1046 20.4771 34.9159 19.7694 34.7272C18.637 34.4441 17.6933 34.4913 16.9384 35.718L16.7497 36.0011L20.0525 38.0772L19.4863 39.0208L12.3145 34.4913L12.8335 33.642Z" fill="#1F1F1F" stroke="#1F1F1F"/>
<path d="M25.7142 26.2342L26.941 28.7349L26.1389 29.5371L22.2227 21.4687L23.1663 20.5723L31.1874 24.5828L30.3381 25.3849L27.8374 24.1582L25.7142 26.2342ZM27.0825 23.6863L24.7705 22.554C24.2515 22.2709 23.8269 22.0349 23.355 21.7518C23.591 22.1765 23.8741 22.6483 24.11 23.1673L25.2424 25.4793L27.0825 23.6863Z" fill="#1F1F1F" stroke="#1F1F1F"/>
<path d="M35.9049 20.9492C35.9049 20.6661 35.8577 20.383 35.8105 20.0999C35.6218 19.0619 35.1971 17.9767 35.4331 17.033C35.4802 16.7499 35.6218 16.514 35.8105 16.2781C34.8197 16.6556 33.7345 16.4668 33.1211 15.476C32.7436 14.8626 32.6964 14.2021 32.8852 13.5887C33.1211 12.9281 33.6873 12.3147 34.6309 11.7485C35.2443 11.3711 35.9049 11.0408 36.4711 10.8521L40.8119 17.9767L39.8683 18.5429L37.9338 15.4288L37.226 15.8535C36.8014 16.1366 36.5183 16.4197 36.4239 16.8443C36.2352 17.6464 36.6598 18.826 36.8486 19.6753C36.8957 19.9112 36.8957 20.0999 36.9429 20.3359L35.9049 20.9492ZM35.9049 12.0788C35.7162 12.126 35.3859 12.2675 34.9612 12.5506C34.0647 13.1168 33.4514 13.919 34.0647 14.9098C34.5838 15.7591 35.669 15.8063 36.707 15.1929C37.0373 15.0042 37.3204 14.8154 37.5091 14.6739L35.9049 12.0788Z" fill="#1F1F1F" stroke="#1F1F1F"/>
<path d="M56.7137 11.8901C56.3834 12.1732 55.6285 12.5979 54.6376 12.8338C52.3257 13.4 50.2024 12.4092 49.5419 9.67253C48.8813 7.07746 50.2024 4.90704 52.7503 4.24648C53.7412 4.01056 54.4961 4.05775 54.7792 4.10493L54.732 5.04859C54.3074 4.95422 53.694 4.95422 52.9862 5.14295C51.0517 5.61479 50.1081 7.17183 50.6271 9.34225C51.1461 11.3711 52.6088 12.362 54.5905 11.843C55.251 11.6542 55.8644 11.3711 56.2419 11.0408L56.7137 11.8901Z" fill="#1F1F1F" stroke="#1F1F1F"/>
<path d="M67.7077 2.68953L68.038 11.1825L66.9528 11.2297L66.6225 3.68037L62.7063 3.82192L63.0366 11.3712L61.9514 11.4184L61.6211 2.92544L67.7077 2.68953Z" fill="#1F1F1F" stroke="#1F1F1F"/>
<path d="M75.5395 9.15404L74.2183 11.6547L73.0859 11.466L77.3796 3.58643L78.6535 3.82234L80.069 12.6456L78.9366 12.4569L78.512 9.67305L75.5395 9.15404ZM78.4176 8.77657L77.993 6.22868C77.8986 5.66249 77.8514 5.14347 77.8042 4.62445H77.7571C77.5683 5.09629 77.3324 5.56812 77.0965 6.08714L75.8697 8.35192L78.4176 8.77657Z" fill="#1F1F1F" stroke="#1F1F1F"/>
<path d="M90.4964 15.9953C90.0717 16.0425 89.2225 15.9481 88.2788 15.5235C86.0612 14.627 84.9288 12.5981 85.9668 10.003C86.9577 7.50234 89.2696 6.51149 91.7232 7.50234C92.714 7.8798 93.233 8.35163 93.4689 8.58755L92.9027 9.29529C92.6196 8.96501 92.1006 8.58755 91.4401 8.35163C89.5999 7.64389 87.9013 8.30445 87.0992 10.3805C86.3443 12.315 86.9577 13.9664 88.845 14.7213C89.4584 14.9573 90.1661 15.0988 90.6379 15.0516L90.4964 15.9953Z" fill="#1F1F1F" stroke="#1F1F1F"/>
<path d="M97.6222 17.2217L95.4046 18.9675L94.4609 18.3541L101.538 12.8809L102.624 13.5886L100.359 22.2703L99.368 21.6097L100.076 18.8731L97.6222 17.2217ZM100.406 18.0238L101.067 15.5231C101.208 14.9569 101.397 14.4851 101.538 13.9661C101.161 14.2964 100.783 14.6738 100.359 15.0041L98.33 16.6083L100.406 18.0238Z" fill="#1F1F1F" stroke="#1F1F1F"/>
<path d="M110.691 21.2797L108.851 19.4867L109.511 18.8262L113.994 23.2142L113.333 23.8748L111.493 22.0346L106.161 27.4135L105.359 26.6586L110.691 21.2797Z" fill="#1F1F1F" stroke="#1F1F1F"/>
<path d="M116.827 34.2547L114.939 31.5653L112.439 33.3111L114.562 36.3308L113.807 36.8498L111.07 32.9336L118.006 28.0737L120.648 31.8484L119.894 32.3674L117.912 29.5364L115.694 31.0934L117.582 33.7829L116.827 34.2547Z" fill="#1F1F1F" stroke="#1F1F1F"/>
<path d="M126.355 43.0784L118.617 46.5228L118.193 45.5319L125.082 42.465L123.949 39.9171L121.59 40.9552C119.891 41.7101 118.004 42.465 116.777 41.7101C116.447 41.5214 116.07 41.1439 115.881 40.6721L116.636 40.2002C116.825 40.4833 117.155 40.7192 117.391 40.8136C118.24 41.1911 119.797 40.5777 121.071 40.0115L124.327 38.5488L126.355 43.0784Z" fill="#1F1F1F" stroke="#1F1F1F"/>
<path d="M128.905 51.1938L125.791 51.8544C125.885 52.0903 126.027 52.5621 126.074 52.8452C126.452 54.5438 126.027 56.1952 124.187 56.6198C123.432 56.8086 122.771 56.667 122.299 56.3839C121.45 55.8649 120.931 54.7797 120.695 53.6473C120.554 52.8924 120.459 52.3262 120.412 51.9487L128.669 50.1558L128.905 51.1938ZM121.45 52.8452C121.45 53.0811 121.497 53.3642 121.592 53.7417C121.875 54.9213 122.63 55.8177 123.904 55.5346C125.178 55.2515 125.461 54.1191 125.178 52.9396C125.13 52.6565 125.036 52.3262 124.942 52.0903L121.45 52.8452Z" fill="#1F1F1F" stroke="#1F1F1F"/>
<path d="M130.602 63.3196L127.063 63.414L127.158 67.5189L130.696 67.4245L130.744 68.5097L122.251 68.6985V67.6133L126.214 67.5189L126.12 63.414L122.156 63.5083V62.4231L130.649 62.2344L130.602 63.3196Z" fill="#1F1F1F" stroke="#1F1F1F"/>
<path d="M123.996 76.2951L121.543 74.8796L121.779 73.7944L129.517 78.324L129.234 79.598L120.363 80.7304L120.599 79.598L123.383 79.2677L123.996 76.2951ZM124.232 79.2205L126.78 78.8902C127.346 78.7958 127.865 78.7958 128.384 78.7487V78.7015C127.913 78.4656 127.441 78.2296 126.969 77.9937L124.751 76.6726L124.232 79.2205Z" fill="#1F1F1F" stroke="#1F1F1F"/>
<path d="M119.042 84.8354C119.184 85.0714 119.372 85.2601 119.608 85.4488C120.363 86.1566 121.354 86.8171 121.732 87.7136C121.826 87.9967 121.873 88.2798 121.873 88.5629C122.439 87.6664 123.477 87.1946 124.515 87.6664C125.176 87.9495 125.601 88.4685 125.789 89.0819C125.978 89.7425 125.836 90.5918 125.412 91.5826C125.129 92.2432 124.798 92.9038 124.468 93.3756L116.777 90.0728L117.202 89.0819L120.599 90.5446L120.929 89.7897C121.118 89.3178 121.165 88.8932 121.024 88.5157C120.694 87.7608 119.656 87.0531 119.042 86.4397C118.901 86.2981 118.759 86.1566 118.57 85.9207L119.042 84.8354ZM124.185 92.0073C124.327 91.8657 124.468 91.5355 124.704 91.1108C125.129 90.12 125.129 89.1291 124.044 88.6573C123.1 88.2798 122.203 88.846 121.732 89.9784C121.59 90.3087 121.448 90.639 121.401 90.8277L124.185 92.0073Z" fill="#1F1F1F" stroke="#1F1F1F"/>
<path d="M30.9983 121.874C30.5736 121.827 29.7715 121.496 28.9694 120.883C27.0349 119.467 26.4687 117.203 28.1201 114.938C29.6771 112.767 32.1778 112.39 34.3011 113.9C35.1504 114.513 35.575 115.079 35.7166 115.363L34.9617 115.929C34.7729 115.551 34.3483 115.079 33.7821 114.655C32.1778 113.475 30.3377 113.758 29.0638 115.551C27.837 117.25 28.0257 118.996 29.6771 120.222C30.2433 120.6 30.8567 120.883 31.3286 120.977L30.9983 121.874Z" fill="#1F1F1F" stroke="#1F1F1F"/>
<path d="M48.552 121.307L45.4851 129.187L44.447 128.762L47.1836 121.732L44.5886 120.694L43.6449 123.1C42.9844 124.799 42.1351 126.686 40.7667 127.017C40.3893 127.111 39.8703 127.111 39.3984 126.922L39.5872 126.073C39.9175 126.167 40.3421 126.073 40.578 125.979C41.4273 125.601 42.1351 124.091 42.6069 122.817L43.928 119.467L48.552 121.307Z" fill="#1F1F1F" stroke="#1F1F1F"/>
<path d="M57.7058 123.525L58.9325 127.347C59.0741 127.866 59.2156 128.385 59.3572 128.904H59.4044C59.5931 128.479 59.829 128.054 60.1121 127.441L61.9051 124.044L63.0375 124.185L60.7255 128.29C60.1593 129.375 59.4516 130.555 58.7438 131.263C58.1304 131.876 57.4699 132.159 56.7149 132.065C56.4318 132.018 56.2431 131.97 56.1016 131.923L56.2903 131.027C56.3847 131.074 56.5262 131.074 56.7149 131.121C57.5642 131.216 58.1776 130.461 58.5551 129.894C58.6494 129.706 58.6494 129.611 58.6023 129.375L56.5262 123.336L57.7058 123.525Z" fill="#1F1F1F" stroke="#1F1F1F"/>
<path d="M71.6718 124.139L74.7859 127.489L75.1161 127.441L74.5971 123.714L75.6351 123.572L76.1542 127.3L76.4844 127.253L78.5605 123.148L79.8344 122.959L77.3809 127.253C78.702 127.205 79.3626 127.96 79.976 129.093C80.3535 129.848 80.6837 130.65 81.1556 131.358L80.0704 131.499C79.6929 130.98 79.4098 130.178 79.1267 129.612C78.5605 128.527 78.0415 127.866 76.7204 128.055L76.3429 128.102L76.9091 131.971L75.8711 132.113L75.3049 128.243L74.9274 128.291C73.5591 128.479 73.276 129.282 73.0401 130.461C72.8985 131.074 72.8042 131.924 72.6154 132.537L71.5302 132.679C71.7661 131.877 71.8605 131.027 72.0492 130.178C72.2851 128.904 72.7098 128.055 73.9837 127.677L70.4922 124.233L71.6718 124.139Z" fill="#1F1F1F" stroke="#1F1F1F"/>
<path d="M92.1494 118.523L92.5269 119.373L89.1769 120.835L90.0734 122.911C90.3093 122.77 90.7339 122.534 91.017 122.44C91.772 122.109 92.5269 121.968 93.2346 122.062C93.9896 122.204 94.6501 122.628 95.0748 123.525C95.4051 124.28 95.4051 124.94 95.1692 125.507C94.7917 126.403 93.848 127.111 92.81 127.583C92.1023 127.913 91.5361 128.054 91.2058 128.196L87.8086 120.458L92.1494 118.523ZM91.8663 126.969C92.1023 126.922 92.3854 126.828 92.7156 126.639C93.329 126.356 93.8952 125.884 94.0839 125.318C94.2255 124.94 94.2255 124.469 93.9896 123.997C93.7065 123.383 93.2818 123.1 92.81 123.006C92.291 122.911 91.7248 123.006 91.1586 123.242C90.9227 123.336 90.6396 123.525 90.4037 123.619L91.8663 126.969Z" fill="#1F1F1F" stroke="#1F1F1F"/>
<path d="M104.841 117.533L105.785 120.175L104.888 120.883L101.963 112.437L103.001 111.635L110.503 116.542L109.559 117.25L107.2 115.693L104.841 117.533ZM106.54 115.174L104.369 113.758C103.897 113.428 103.473 113.098 103.048 112.815C103.237 113.287 103.473 113.758 103.661 114.277L104.511 116.731L106.54 115.174Z" fill="#1F1F1F" stroke="#1F1F1F"/>
<path d="M112.721 107.011C113.92 107.011 114.892 106.039 114.892 104.841C114.892 103.642 113.92 102.67 112.721 102.67C111.522 102.67 110.551 103.642 110.551 104.841C110.551 106.039 111.522 107.011 112.721 107.011Z" fill="#1F1F1F" stroke="#1F1F1F" stroke-miterlimit="10"/>
<path d="M21.6567 107.011C22.8554 107.011 23.8272 106.039 23.8272 104.841C23.8272 103.642 22.8554 102.67 21.6567 102.67C20.4581 102.67 19.4863 103.642 19.4863 104.841C19.4863 106.039 20.4581 107.011 21.6567 107.011Z" fill="#1F1F1F" stroke="#1F1F1F" stroke-miterlimit="10"/>
</g>
</svg>
