<svg width="68" height="68" viewBox="0 0 68 68" fill="none" xmlns="http://www.w3.org/2000/svg">
<circle opacity="0.05" cx="34" cy="34" r="34" transform="matrix(0 1 1 0 0 0)" fill="#F95707"/>
<circle cx="26" cy="26" r="26" transform="matrix(0 1 1 0 8 8)" fill="#F95707"/>
<path d="M35 24H28C27.4696 24 26.9609 24.2107 26.5858 24.5858C26.2107 24.9609 26 25.4696 26 26V42C26 42.5304 26.2107 43.0391 26.5858 43.4142C26.9609 43.7893 27.4696 44 28 44H40C40.5304 44 41.0391 43.7893 41.4142 43.4142C41.7893 43.0391 42 42.5304 42 42V31L35 24Z" stroke="white" stroke-width="1.5" stroke-linecap="round" stroke-linejoin="round"/>
<path d="M35 24V31H42" stroke="white" stroke-width="1.5" stroke-linecap="round" stroke-linejoin="round"/>
</svg>
