<svg width="224" height="115" viewBox="0 0 224 115" fill="none" xmlns="http://www.w3.org/2000/svg">
<g opacity="0.8" clip-path="url(#clip0_117_313)">
<path fill-rule="evenodd" clip-rule="evenodd" d="M85.3866 85.9013V83.9247H80.3431V85.9013H79.7539V81.6608H80.3431V83.4995H85.3866V81.6608H85.9688V85.9013H85.3866Z" fill="#1F1F1F"/>
<path fill-rule="evenodd" clip-rule="evenodd" d="M87.9531 85.9012V81.6606H92.9769V82.0835H88.533V83.4994H92.8595V83.9188H88.533V85.476H92.9769V85.9012H87.9531Z" fill="#1F1F1F"/>
<path fill-rule="evenodd" clip-rule="evenodd" d="M103.17 84.0312V83.5029C103.17 82.4949 102.668 81.9874 101.077 81.9874H99.3457V81.6108H98.7554V81.9874H97.0448C95.4434 81.9874 94.9414 82.4103 94.9414 83.5029V84.0312C94.9414 85.1099 95.5085 85.4829 97.0448 85.4829H98.7554V85.9H99.3457V85.4829H101.077C102.604 85.4829 103.17 85.1296 103.17 84.0312ZM102.579 84.0312C102.579 84.848 102.182 85.0635 101.077 85.0635H99.3457V82.4114H101.077C102.127 82.4114 102.579 82.6571 102.579 83.4797V84.0312ZM98.7554 85.0635H97.0448C95.9385 85.0635 95.5166 84.848 95.5166 84.0254V83.4612C95.5166 82.6501 95.9792 82.4114 97.0448 82.4114H98.7554V85.0635Z" fill="#1F1F1F"/>
<path fill-rule="evenodd" clip-rule="evenodd" d="M107.659 82.0837V85.9013H108.246V82.0837H111.02V81.6608H104.906V82.0837H107.659Z" fill="#1F1F1F"/>
<path fill-rule="evenodd" clip-rule="evenodd" d="M118.423 85.9015V81.6621H114.6C113.188 81.6621 112.606 82.0108 112.606 82.9748C112.606 83.772 113.188 84.1439 114.301 84.1439L112.371 85.9027H113.188L115.004 84.1439H117.832V85.9027L118.423 85.9015ZM117.832 83.7245H114.415C113.506 83.7245 113.189 83.6063 113.189 82.9748C113.189 82.3167 113.522 82.0838 114.357 82.0838H117.832V83.7245Z" fill="#1F1F1F"/>
<path fill-rule="evenodd" clip-rule="evenodd" d="M126.189 85.9013V83.9247H121.149V85.9013H120.562V81.6608H121.149V83.4995H126.189V81.6608H126.779V85.9013H126.189Z" fill="#1F1F1F"/>
<path fill-rule="evenodd" clip-rule="evenodd" d="M135.119 85.9013L132.179 81.6619H131.276L128.338 85.9013H128.986L129.716 84.8376H133.707L134.43 85.9013H135.119ZM133.4 84.4043H130.035L131.713 81.9654L133.4 84.4043Z" fill="#1F1F1F"/>
<path fill-rule="evenodd" clip-rule="evenodd" d="M141.822 85.9012V84.1424H138.996L137.171 85.9012H136.365L138.282 84.1424C137.171 84.1424 136.595 83.7705 136.595 82.9734C136.595 82.0094 137.171 81.6606 138.583 81.6606H142.414V85.9L141.822 85.9012ZM141.822 82.0835H138.349C137.516 82.0835 137.171 82.3153 137.171 82.9745C137.171 83.6071 137.491 83.7241 138.405 83.7241H141.822V82.0835Z" fill="#1F1F1F"/>
<path fill-rule="evenodd" clip-rule="evenodd" d="M153.302 85.9013H154.333L150.228 83.6791L154.241 81.6608H153.201L149.618 83.4798H148.665V81.6608H148.076V85.9013H148.665V83.9062H149.643L153.302 85.9013Z" fill="#1F1F1F"/>
<path fill-rule="evenodd" clip-rule="evenodd" d="M161.97 84.4471C161.97 85.2767 161.693 85.4772 160.5 85.4772H158.017C156.912 85.4772 156.499 85.264 156.499 84.4471V83.0939C156.499 82.2689 156.951 82.0453 158.017 82.0453H160.5C161.632 82.0453 161.97 82.255 161.97 83.0939V84.4471ZM162.553 84.4471V83.1205C162.553 81.8877 161.876 81.6108 160.5 81.6108H158.023C156.411 81.6108 155.91 82.0442 155.91 83.1205V84.4471C155.91 85.5362 156.482 85.9012 158.023 85.9012H160.5C162.009 85.9012 162.553 85.6544 162.553 84.4471Z" fill="#1F1F1F"/>
<path fill-rule="evenodd" clip-rule="evenodd" d="M171.479 81.6607H172.743V85.9013H172.153V82.0048H171.827L168.764 85.9013H168.463L165.404 82.0048H165.073V85.9013H164.488V81.6607H165.743L168.621 85.2768L171.479 81.6607Z" fill="#1F1F1F"/>
<path fill-rule="evenodd" clip-rule="evenodd" d="M175.442 85.9013V82.0836H180.469V85.9013H181.063V81.6607H174.846V85.9013H175.442Z" fill="#1F1F1F"/>
<path fill-rule="evenodd" clip-rule="evenodd" d="M188.716 85.9013L187.995 84.8376H184.004L183.264 85.9013H182.615L185.56 81.6619H186.452L189.393 85.9013H188.716ZM186.005 81.9643L184.315 84.4032H187.687L186.005 81.9643Z" fill="#1F1F1F"/>
<path fill-rule="evenodd" clip-rule="evenodd" d="M197.288 85.9012V81.6606H196.703V83.4994H191.67V81.6606H191.074V85.9012H191.67V83.9246H196.703V85.9012H197.288Z" fill="#1F1F1F"/>
<path fill-rule="evenodd" clip-rule="evenodd" d="M205.524 85.9012V81.6606H204.378L199.893 85.571H199.842V81.6606H199.262V85.9012H200.216L204.713 81.9885H204.93V85.9012H205.524Z" fill="#1F1F1F"/>
<path fill-rule="evenodd" clip-rule="evenodd" d="M212.621 83.7245H209.196C208.283 83.7245 207.976 83.6063 207.976 82.9748C207.976 82.3167 208.299 82.0838 209.132 82.0838H212.621V83.7245ZM213.198 85.9015V81.6621H209.378C207.976 81.6621 207.387 82.0108 207.387 82.9748C207.387 83.772 207.976 84.1439 209.086 84.1439L207.148 85.9027H207.976L209.783 84.1439H212.621V85.9027L213.198 85.9015Z" fill="#1F1F1F"/>
<path fill-rule="evenodd" clip-rule="evenodd" d="M79.703 92.1833C79.703 92.1833 92.4813 92.0118 93.5051 92.6954C94.5278 93.3697 95.5492 94.058 95.7201 95.4101C95.8897 96.7703 95.0391 101.011 91.8003 101.183C88.5662 101.353 84.8231 101.011 84.8231 101.011L84.6558 104.409L79.5449 104.24L79.703 92.1833Z" fill="#1F1F1F"/>
<path fill-rule="evenodd" clip-rule="evenodd" d="M84.9873 95.5769L84.8223 97.6184C84.8223 97.6184 88.9059 98.4642 89.7565 97.6184C90.6083 96.7714 89.925 95.4112 88.5665 95.4112C87.2069 95.4112 84.9873 95.5769 84.9873 95.5769Z" fill="white"/>
<path fill-rule="evenodd" clip-rule="evenodd" d="M95.7212 95.4113C97.0902 93.8854 99.4724 91.5056 104.913 91.8427C110.365 92.1845 113.266 94.3859 113.266 96.9476C113.266 99.4861 113.428 102.881 110.193 103.895C106.961 104.919 103.72 104.919 101.508 104.585C99.2935 104.241 95.7212 102.2 95.2122 99.4873C94.6997 96.7703 95.7212 95.4113 95.7212 95.4113Z" fill="#1F1F1F"/>
<path fill-rule="evenodd" clip-rule="evenodd" d="M100.832 98.6343C100.52 96.441 102.359 95.0669 103.891 95.0669C105.422 95.0669 107.97 95.2395 107.802 98.128C107.636 101.012 107.472 100.841 105.94 101.354C104.406 101.862 101.34 102.377 100.832 98.6343Z" fill="white"/>
<path fill-rule="evenodd" clip-rule="evenodd" d="M131.475 96.9476C130.628 95.4112 128.761 92.5193 125.859 92.3559C122.965 92.1845 119.045 91.8427 117.175 92.5193C115.297 93.2052 113.777 94.8968 113.431 96.425C113.093 97.9579 112.742 101.354 114.962 102.881C117.173 104.409 120.758 105.601 124.159 104.919C127.558 104.241 130.797 102.881 131.308 99.9936H125.522C125.522 99.9936 123.982 102.034 122.116 101.862C122.116 101.862 120.402 102.377 119.214 100.682C118.029 98.9751 118.195 97.4492 119.384 95.9187C120.586 94.3858 123.815 94.8956 124.158 95.5769C124.496 96.2582 125.007 97.2743 125.007 97.2743L131.475 96.9476Z" fill="#1F1F1F"/>
<path fill-rule="evenodd" clip-rule="evenodd" d="M130.971 92.5193H136.253V96.6H141.523V92.1833H146.977V104.409H141.864V100.334H136.423V104.409H130.799L130.971 92.5193Z" fill="#1F1F1F"/>
<path fill-rule="evenodd" clip-rule="evenodd" d="M148.684 92.1831L163.838 92.3557V95.411H154.645V96.5998H162.309V99.9934H154.3V101.529H164.177V104.749H148.851L148.684 92.1831Z" fill="#1F1F1F"/>
<path fill-rule="evenodd" clip-rule="evenodd" d="M171.671 92.1831H176.952C176.952 92.1831 176.615 93.0347 177.303 92.8667C177.973 92.6964 182.572 92.5179 183.94 94.2246C185.298 95.9185 185.813 98.1268 184.445 99.6562C183.077 101.186 181.887 101.862 181.045 101.862C180.185 101.862 177.303 102.033 177.303 102.033V104.749H171.671V101.862C171.671 101.862 168.093 101.692 166.902 101.354C165.716 101.012 163.496 99.6562 163.496 97.4502C163.496 95.2407 164.688 93.3707 166.398 93.205C168.093 93.0358 171.331 93.0358 171.331 93.0358L171.671 92.1831Z" fill="#1F1F1F"/>
<path fill-rule="evenodd" clip-rule="evenodd" d="M171.67 95.9187L171.5 98.4641C171.5 98.4641 168.777 98.8059 168.777 97.7933C168.777 96.7702 169.291 95.7507 171.67 95.9187Z" fill="white"/>
<path fill-rule="evenodd" clip-rule="evenodd" d="M177.301 96.0878L177.462 98.4653C177.462 98.4653 178.995 99.1478 179.853 97.9578C180.694 96.7703 179.162 95.9187 177.301 96.0878Z" fill="white"/>
<path fill-rule="evenodd" clip-rule="evenodd" d="M188.017 95.9187V104.919H193.465V95.9187H198.401L199.431 94.5642L197.9 92.6965H183.594C183.598 92.6965 182.91 95.4112 184.442 95.5769C185.973 95.7507 188.017 95.9187 188.017 95.9187Z" fill="#1F1F1F"/>
<path fill-rule="evenodd" clip-rule="evenodd" d="M203.855 92.6968V96.0881C203.855 96.0881 210.333 95.7509 211.526 96.4252C212.717 97.1065 213.909 98.1284 214.078 99.3102C214.248 100.506 213.909 102.377 212.717 103.391C211.526 104.409 210.168 105.087 208.794 105.087H198.926V92.8671L203.855 92.6968Z" fill="#1F1F1F"/>
<path fill-rule="evenodd" clip-rule="evenodd" d="M204.373 99.6566V101.692H207.773C208.62 101.692 209.819 99.8257 208.282 99.4874C206.753 99.1468 204.373 99.6566 204.373 99.6566Z" fill="white"/>
<path fill-rule="evenodd" clip-rule="evenodd" d="M9.88281 36.1523H18.5718V65.5292L9.88281 57.8846V36.1523Z" fill="#1F1F1F"/>
<path fill-rule="evenodd" clip-rule="evenodd" d="M20.2754 26.4756H28.6192V75.0392L20.2754 67.0481V26.4756Z" fill="#1F1F1F"/>
<path fill-rule="evenodd" clip-rule="evenodd" d="M30.3262 16.7988H38.842V62.81H30.3262V16.7988Z" fill="#1F1F1F"/>
<path fill-rule="evenodd" clip-rule="evenodd" d="M40.5391 7.12109H49.3954V53.3025H40.5391V7.12109Z" fill="#1F1F1F"/>
<path fill-rule="evenodd" clip-rule="evenodd" d="M50.5879 16.2844H59.106V62.81H50.5879V16.2844Z" fill="#1F1F1F"/>
<path fill-rule="evenodd" clip-rule="evenodd" d="M61.1484 26.2972H69.4923V66.8802L61.1484 75.0392V26.2972Z" fill="#1F1F1F"/>
<path fill-rule="evenodd" clip-rule="evenodd" d="M71.0215 35.981H79.5443V57.208L71.0215 65.5292V35.981Z" fill="#1F1F1F"/>
<path fill-rule="evenodd" clip-rule="evenodd" d="M30.3262 63.8364H38.842V106.44H30.3262V63.8364Z" fill="#1F1F1F"/>
<path fill-rule="evenodd" clip-rule="evenodd" d="M40.5391 54.667H48.8806V106.44H40.5391V54.667Z" fill="#1F1F1F"/>
<path fill-rule="evenodd" clip-rule="evenodd" d="M50.5879 63.9987H59.106V106.44H50.5879V63.9987Z" fill="#1F1F1F"/>
</g>
<defs>
<clipPath id="clip0_117_313">
<rect width="224" height="115" fill="white"/>
</clipPath>
</defs>
</svg>
