<svg width="254" height="40" viewBox="0 0 254 40" fill="none" xmlns="http://www.w3.org/2000/svg">
<g opacity="0.8" clip-path="url(#clip0_117_420)">
<path d="M64.2646 3.5443V5.00506H76.8881C77.7296 5.00506 78.992 5.00506 79.8208 5.8405C80.6496 6.67594 80.6624 7.92911 80.6624 8.75189V21.2835C80.6624 22.119 80.6624 23.3721 79.8208 24.1949C78.9792 25.0304 77.7169 25.0304 76.8881 25.0304H70.7931C69.7424 25.0304 68.373 25.0304 67.8604 23.881C67.335 22.7316 68.0705 21.6886 68.7019 20.843L76.9136 9.98227H64.2901L59.2407 16.6658C58.394 17.7848 57.6621 18.7544 57.6621 20.0076C57.6621 21.2608 58.343 22.162 59.2407 23.3494L60.503 25.0202C61.7654 26.6911 63.0277 28.362 64.7109 29.1975C66.394 30.0329 68.3832 30.0329 71.1374 30.0329H76.5948C79.7571 30.0329 84.4749 30.0329 87.6372 26.8937C90.7994 23.7544 90.7994 19.1721 90.7994 17.5013V12.4886C90.7994 10.8177 90.7994 6.23544 87.6372 3.0962C84.4749 -0.0430442 79.7571 -0.0430442 76.5948 -0.0430442L67.8731 -0.045829C67.0315 -0.0460822 65.9809 -0.045829 65.1444 0.789614C64.3028 1.62506 64.3028 2.6681 64.3028 3.49847" fill="#1F1F1F"/>
<path d="M49.2181 10.0255H61.714L46.6679 30.1267H34.1719L49.2181 10.0255Z" fill="#1F1F1F"/>
<path d="M0 13.5696C0 12.7342 0 11.6911 0.841566 10.8607C1.68313 10.0304 2.73382 10.0253 3.57028 10.0253H24.7114C27.4402 10.0253 29.4548 10.0253 31.138 10.8607C32.8211 11.6962 34.0707 13.3671 35.3458 15.038L36.6081 16.7088C37.5033 17.8937 38.1867 18.7975 38.1867 20.0506C38.1867 21.3038 37.4548 22.2734 36.6081 23.3924L31.5587 30.0759H18.9352L27.1469 19.2152C27.7768 18.3797 28.5138 17.3367 27.9885 16.1772C27.4631 15.0278 26.0962 15.0278 25.0557 15.0278H15.1609V40.0911H5.06215V15.0278H0.012751V13.5645" fill="#1F1F1F"/>
<path d="M102.774 26.5823C102.016 27.605 101.244 28.6126 100.486 29.6202V30.1924H102.621C103.666 28.8101 104.212 28.0886 104.212 27.2557H106.303V30.1924H108.303V27.2557H110.394C110.394 28.0835 110.94 28.805 111.985 30.1924H114.12V29.6202L111.817 26.5823C113.755 25.1392 113.755 25.1392 113.755 23.2405V22.6101H111.575V23.2405C111.575 25.5418 111.575 25.5417 109.302 25.5417H108.303V22.605H106.303V25.5417H105.304C103.031 25.5417 103.031 25.5418 103.031 23.2405V22.6101H100.851V23.2405C100.851 25.1342 100.851 25.1342 102.774 26.5823Z" fill="#1F1F1F"/>
<path fill-rule="evenodd" clip-rule="evenodd" d="M118.075 25.5694C118.075 23.901 118.075 23.901 119.936 23.901C121.798 23.901 121.798 23.901 121.798 25.5694H118.075ZM118.075 26.9213H119.936C121.89 26.9061 122.466 26.9365 123.124 26.7858L123.897 26.6056V25.8689C123.897 24.6208 123.897 22.2739 120.301 22.2739H119.574C115.979 22.2739 115.979 24.6182 115.979 25.8942V26.6157C115.979 27.9676 116.009 30.236 119.957 30.236C120.548 30.236 121.88 30.236 123.323 29.8765V28.2537H122.915L121.461 28.6132H119.916C118.054 28.6127 118.054 28.6127 118.054 26.9448L118.075 26.9213Z" fill="#1F1F1F"/>
<path d="M127.255 22.481C127.255 23.6227 127.164 27.0632 125.348 29.4683V30.0556H127.574C128.892 28.3113 128.892 26.0303 128.892 24.1569H132.029V30.0556H134.029V22.486H127.271" fill="#1F1F1F"/>
<path fill-rule="evenodd" clip-rule="evenodd" d="M138.478 25.5694C138.478 23.901 138.478 23.901 140.342 23.901C142.204 23.901 142.204 23.901 142.204 25.5694H138.48M138.48 26.9213H140.345C142.298 26.9061 142.874 26.9365 143.532 26.7858L144.305 26.6056V25.8689C144.305 24.6208 144.305 22.2739 140.709 22.2739H139.983C136.387 22.2739 136.387 24.6182 136.387 25.8942V26.6157C136.387 27.9676 136.417 30.236 140.365 30.236C140.957 30.236 142.288 30.236 143.731 29.8765V28.2537H143.323L141.87 28.6132H140.324C138.463 28.6127 138.463 28.6127 138.463 26.9448L138.48 26.9213Z" fill="#1F1F1F"/>
<path d="M151.737 26.3291V26.1035C153.282 25.7137 153.282 24.7668 153.282 24.4048C153.282 23.6833 153.282 22.2402 149.61 22.2402C149.064 22.2402 147.792 22.2402 146.346 22.6023V24.225H146.754L148.207 23.863H149.888C151.053 23.863 151.115 23.863 151.115 24.7035C151.115 25.5314 151.115 25.5314 149.888 25.5314H148.207V26.8833H149.888C151.053 26.8833 151.115 26.8833 151.115 27.7111C151.115 28.5542 151.115 28.5542 149.888 28.5542H148.207L146.754 28.1921H146.346V29.8149C147.799 30.1744 149.074 30.1744 149.61 30.1744C153.282 30.1744 153.282 28.7314 153.282 28.0099C153.282 27.6504 153.282 26.7035 151.737 26.3263" fill="#1F1F1F"/>
<path d="M161.683 22.481V25.3164H157.603V22.481H155.562V30.1265H157.603V27.0886H161.683V30.1265H163.468V22.481H161.683Z" fill="#1F1F1F"/>
<path fill-rule="evenodd" clip-rule="evenodd" d="M169.844 26.3293C171.436 26.3293 171.436 26.3293 171.436 27.5015C171.436 28.6736 171.436 28.6736 169.844 28.6736H168.253V26.3293H169.844ZM176.985 22.5319H174.986V30.1015H176.985V22.5319ZM170.125 30.1015C172.532 30.1015 173.542 29.5749 173.542 27.5192C173.542 26.3926 173.542 24.7597 170.405 24.7597C169.951 24.7597 169.179 24.8053 168.271 25.0306V22.504H166.271V30.0736H170.122L170.125 30.1015Z" fill="#1F1F1F"/>
<path fill-rule="evenodd" clip-rule="evenodd" d="M181.575 25.5699C181.575 23.9015 181.575 23.9015 183.436 23.9015C185.298 23.9015 185.298 23.9015 185.298 25.5699H181.575ZM181.575 26.9218H183.436C185.39 26.9066 185.966 26.9369 186.624 26.7863L187.397 26.6061V25.8693C187.397 24.6212 187.397 22.2744 183.801 22.2744H183.074C179.479 22.2744 179.479 24.6187 179.479 25.8947V26.6162C179.479 27.9681 179.509 30.2364 183.457 30.2364C184.048 30.2364 185.38 30.2364 186.823 29.8769V28.2542H186.415L184.961 28.6137H183.416C181.554 28.6131 181.554 28.6131 181.554 26.9453L181.575 26.9218Z" fill="#1F1F1F"/>
<path fill-rule="evenodd" clip-rule="evenodd" d="M195.602 26.0764C195.602 24.046 195.602 24.0916 198.305 24.0916C198.67 24.0916 199.17 24.1364 199.774 24.2718V27.5123L197.836 27.9933C195.595 27.9936 195.595 27.9936 195.595 26.0693M194.414 31.3098V33.0237C195.867 33.3857 197.041 33.3857 197.5 33.3857C201.631 33.3857 201.758 31.6111 201.758 29.5883V22.5503H201.106L200.137 23.2718C199.471 22.4136 197.849 22.3857 197.331 22.3857C193.48 22.3857 193.48 24.7908 193.48 25.8794V26.2414C193.48 27.5047 193.48 29.5832 196.745 29.5832C197.729 29.5832 198.895 29.3123 199.754 28.6819V29.3123C199.754 31.6414 199.709 31.6566 197.301 31.6566H196.255L194.801 31.2946H194.393L194.414 31.3098Z" fill="#1F1F1F"/>
<path fill-rule="evenodd" clip-rule="evenodd" d="M207.843 22.3042C203.992 22.3042 203.992 24.5599 203.992 25.9245V26.646C203.992 27.9979 203.992 30.2662 207.843 30.2662H208.57C212.421 30.2662 212.421 28.0105 212.421 26.646V25.9245C212.421 24.5726 212.421 22.3042 208.57 22.3042H207.843ZM208.205 23.9726C210.34 23.9726 210.34 23.9726 210.34 26.2738C210.34 28.5751 210.34 28.5751 208.205 28.5751C206.071 28.5751 206.071 28.5751 206.071 26.2738C206.071 23.9726 206.071 23.9726 208.205 23.9726Z" fill="#1F1F1F"/>
<path fill-rule="evenodd" clip-rule="evenodd" d="M220.849 26.3291C220.849 28.5848 220.849 28.5848 218.623 28.5848C218.077 28.5848 217.381 28.5848 216.669 28.4043V24.6068L218.608 24.1258C220.849 24.1258 220.849 24.1557 220.849 26.3208M214.678 22.5233V33.1562H216.677V29.8651C217.585 30.0906 218.312 30.2701 219.406 30.2701C222.951 30.2701 222.951 27.6879 222.951 26.6499V25.9284C222.951 24.6651 222.951 22.3081 219.635 22.3081C217.939 22.3081 216.958 23.0448 216.422 23.4499L215.695 22.4879H214.696L214.678 22.5233Z" fill="#1F1F1F"/>
<path fill-rule="evenodd" clip-rule="evenodd" d="M229.009 22.304C225.158 22.304 225.158 24.5597 225.158 25.9243V26.6458C225.158 27.9977 225.158 30.2661 229.009 30.2661H229.736C233.587 30.2661 233.587 28.0104 233.587 26.6458V25.9243C233.587 24.5724 233.587 22.304 229.736 22.304H229.009ZM229.371 23.9724C231.506 23.9724 231.506 23.9724 231.506 26.2737C231.506 28.5749 231.506 28.5749 229.371 28.5749C227.237 28.5749 227.237 28.5749 227.237 26.2737C227.237 23.9724 227.237 23.9724 229.371 23.9724Z" fill="#1F1F1F"/>
<path d="M239.465 22.3037C238.738 22.3037 237.784 22.3037 236.328 22.6657V24.2885H236.736L238.19 23.929H240.051C241.051 23.929 241.051 23.929 241.051 24.5012C241.051 24.8911 241.051 25.0126 240.278 25.1467L238.46 25.5974C237.415 25.8531 235.961 26.243 235.961 27.8075C235.961 28.8455 235.961 30.243 239.633 30.243C240.36 30.243 241.314 30.243 242.77 29.8835V28.2607H242.362C241.755 28.426 241.181 28.5619 240.954 28.6227H239.047C238.047 28.6227 238.047 28.6227 238.047 28.0505C238.047 27.7062 238.047 27.6303 238.47 27.5088L239.485 27.2379L240.635 26.9518C241.681 26.6961 243.135 26.3214 243.135 24.7417C243.134 23.7037 243.134 22.3062 239.462 22.3062" fill="#1F1F1F"/>
<path d="M252.471 30.3799L253.955 29.2812C253.41 28.5596 253.41 28.5596 253.41 27.2812V22.5976H251.41V28.0913L249.472 28.5723C247.411 28.5723 247.411 28.5723 247.411 26.4837V22.585H245.412V26.7875C245.412 28.2761 245.412 30.3571 248.447 30.3571C250.038 30.3571 251.023 29.6204 251.558 29.2153L252.451 30.3875" fill="#1F1F1F"/>
<path fill-rule="evenodd" clip-rule="evenodd" d="M100.988 4.37981V15.0127H103.169V12.076H104.895C107.853 12.076 110.174 12.076 110.174 8.22791C110.174 4.35449 107.856 4.35449 104.895 4.35449H100.993M103.174 10.1773V6.25323H105.801C107.754 6.25323 107.846 6.25323 107.846 8.22285C107.846 10.1317 107.846 10.1773 105.801 10.1773H103.174Z" fill="#1F1F1F"/>
<path fill-rule="evenodd" clip-rule="evenodd" d="M115.779 7.26611C111.928 7.26611 111.928 9.52181 111.928 10.8864V11.6079C111.928 12.9598 111.928 15.2281 115.779 15.2281H116.505C120.356 15.2281 120.356 12.9724 120.356 11.6079V10.8864C120.356 9.53447 120.356 7.26611 116.505 7.26611H115.779ZM116.141 8.93447C118.275 8.93447 118.275 8.93447 118.275 11.2357C118.275 13.537 118.275 13.537 116.141 13.537C114.006 13.537 114.006 13.537 114.006 11.2357C114.006 8.93447 114.006 8.93447 116.141 8.93447Z" fill="#1F1F1F"/>
<path d="M126.235 15.2152C126.781 15.2152 128.189 15.2152 129.653 14.8532V13.2304H129.244L127.776 13.5899H126.914C124.384 13.5899 124.384 13.5899 124.384 11.2456C124.384 8.90132 124.384 8.90132 126.245 8.90132C127.821 8.90132 127.821 8.90132 128.199 10.3899L130.017 9.93929C130.017 9.21778 130.017 7.28107 126.6 7.28107H125.873C122.277 7.28107 122.277 9.53676 122.277 10.9013V11.6228C122.277 12.9747 122.277 15.2431 126.23 15.2431" fill="#1F1F1F"/>
<path d="M135.927 15.2154C136.472 15.2154 137.88 15.2154 139.344 14.8534V13.2306H138.936L137.467 13.5901H136.605C134.075 13.5901 134.075 13.5901 134.075 11.2458C134.075 8.9015 134.075 8.9015 135.937 8.9015C137.513 8.9015 137.513 8.9015 137.89 10.3901L139.709 9.93948C139.709 9.21796 139.709 7.28125 136.291 7.28125H135.565C131.969 7.28125 131.969 9.53695 131.969 10.9015V11.623C131.969 12.9749 131.969 15.2433 135.922 15.2433" fill="#1F1F1F"/>
<path d="M148.676 15.2407L150.16 14.142C149.615 13.4205 149.615 13.4205 149.615 12.142V7.45846H147.615V12.9521L145.677 13.4331C143.617 13.4331 143.617 13.4331 143.617 11.3445V7.4458H141.617V11.6483C141.617 13.1369 141.617 15.218 144.652 15.218C146.243 15.218 147.228 14.4812 147.763 14.0762L148.656 15.2483" fill="#1F1F1F"/>
<path fill-rule="evenodd" clip-rule="evenodd" d="M155.817 4.75955C154.832 4.75955 154.832 4.75955 154.348 4.21777L153.47 4.89372C154.424 6.11144 154.909 6.20258 156.301 6.20258H156.635C158.012 6.20258 158.512 6.1122 159.441 4.89372L158.563 4.21777C158.094 4.75955 158.094 4.75955 157.094 4.75955H155.806M159.504 15.2659L160.988 14.1671C160.443 13.4456 160.443 13.4456 160.443 12.1671V7.4836H158.443V12.9773L156.505 13.4583C154.491 13.4583 154.445 13.4583 154.445 11.3697V7.47094H152.445V11.6735C152.445 13.1621 152.445 15.2431 155.48 15.2431C157.071 15.2431 158.056 14.5064 158.591 14.1013L159.484 15.2735L159.504 15.2659Z" fill="#1F1F1F"/>
<path d="M166.785 15.2154C167.33 15.2154 168.738 15.2154 170.202 14.8534V13.2306H169.794L168.325 13.5901H167.46C164.931 13.5901 164.931 13.5901 164.931 11.2458C164.931 8.9015 164.931 8.9015 166.792 8.9015C168.368 8.9015 168.368 8.9015 168.746 10.3901L170.564 9.93948C170.564 9.21796 170.564 7.28125 167.147 7.28125H166.42C162.824 7.28125 162.824 9.53695 162.824 10.9015V11.623C162.824 12.9749 162.824 15.2433 166.777 15.2433" fill="#1F1F1F"/>
<path d="M172.905 7.46841V15.038H174.904V12.1013H177.358C177.358 12.9292 177.903 13.6507 178.946 15.038H181.081V14.4659L178.778 11.4279C180.716 9.98486 180.716 9.98486 180.716 8.08613V7.45575H178.536V8.08613C178.536 10.3874 178.536 10.3874 176.264 10.3874H174.902V7.45068H172.902" fill="#1F1F1F"/>
<path d="M190.245 15.2407L191.729 14.142C191.183 13.4205 191.183 13.4205 191.183 12.142V7.45846H189.184V12.9521L187.245 13.4331C185.185 13.4331 185.185 13.4331 185.185 11.3445V7.4458H183.186V11.6483C183.186 13.1369 183.186 15.218 186.22 15.218C187.812 15.218 188.796 14.4812 189.332 14.0762L190.224 15.2483" fill="#1F1F1F"/>
<path fill-rule="evenodd" clip-rule="evenodd" d="M195.601 10.557C195.601 8.88865 195.601 8.88865 197.465 8.88865C199.327 8.88865 199.327 8.88865 199.327 10.557H195.603M195.603 11.9089H197.468C199.421 11.8937 199.997 11.9241 200.655 11.7735L201.428 11.5932V10.8565C201.428 9.6084 201.428 7.26157 197.832 7.26157H197.106C193.51 7.26157 193.51 9.60587 193.51 10.8818V11.6033C193.51 12.9552 193.54 15.2236 197.488 15.2236C198.08 15.2236 199.411 15.2236 200.854 14.8616V13.2388H200.446L198.993 13.5983H197.447C195.583 13.598 195.583 13.598 195.583 11.9299L195.603 11.9089Z" fill="#1F1F1F"/>
</g>
<defs>
<clipPath id="clip0_117_420">
<rect width="254" height="40" fill="white"/>
</clipPath>
</defs>
</svg>
