<svg width="143" height="114" viewBox="0 0 143 114" fill="none" xmlns="http://www.w3.org/2000/svg">
<g opacity="0.8" clip-path="url(#clip0_117_356)">
<path d="M43.0923 23.9909C40.9487 16.7542 35.1301 17.5474 31.1518 20.9179C21.3518 29.9387 8.59143 48.8728 16.7581 76.1367C23.5977 99.234 52.057 114.005 52.057 114.005H18.881C18.881 114.005 1.75081 94.8724 0.219482 72.3699C-1.72003 43.9197 9.71418 25.9767 22.985 14.2797C35.439 3.27608 47.2807 0.00488281 47.2807 0.00488281L71.5037 79.0924L95.7267 0.00488281C95.7267 0.00488281 107.568 3.27608 120.022 14.2797C133.293 25.9767 144.727 43.9197 142.788 72.3699C141.257 94.8724 124.126 114.005 124.126 114.005H90.9505C90.9505 114.005 119.407 99.234 126.249 76.1367C134.416 48.8759 121.656 29.9418 111.856 20.9179C107.874 17.5474 102.056 16.7542 99.9152 23.9909C92.5652 47.0883 71.5067 113.267 71.5067 113.267C71.5067 113.267 50.4483 47.0662 43.0983 23.9909H43.0923Z" fill="#1F1F1F"/>
</g>
<defs>
<clipPath id="clip0_117_356">
<rect width="143" height="114" fill="white"/>
</clipPath>
</defs>
</svg>
