<svg width="144" height="144" viewBox="0 0 144 144" fill="none" xmlns="http://www.w3.org/2000/svg">
<g opacity="0.8">
<path d="M4.07617 26.5639C34.2842 22.437 70.2695 28.0823 93.4967 51.1058C116.724 74.1247 122.362 109.985 118.194 139.925C118.569 111.015 103.158 85.2649 81.2825 63.5908C59.4186 41.9122 33.245 26.1959 4.07617 26.5639Z" fill="#1F1F1F"/>
<path d="M39.6477 64.1337V73.1144H31.322V94.5037H21.8715V73.1144H13.5527V64.1337H39.6477Z" fill="#1F1F1F"/>
<path d="M34.7949 81.649H48.7937L52.0064 98.2726H52.1823L55.2515 81.649H69.2156V112.026H60.7487V88.1647H60.5404L55.6728 112.026H47.8054L43.0812 88.1647H42.8336V112.026H34.7949V81.649Z" fill="#1F1F1F"/>
<path d="M82.39 111.104H82.5358L88.3525 99.1724H99.1131L90.7874 113.403L99.8862 129.545H88.6025L82.5358 116.657H82.39V129.545H72.9395V99.1724H82.39V111.104Z" fill="#1F1F1F"/>
</g>
</svg>
